<svg xmlns="http://www.w3.org/2000/svg" viewBox="0 0 59.77 45"><path d="M47.99 45H36.43v-1.01c.09-6.29.13-16.13.13-16.48 0-3.04-2.48-5.51-5.53-5.51h-1.14c-3.06 0-5.55 2.47-5.55 5.51 0 .36.03 10.33.08 16.48V45H12.89c-1.35 0-2.45-1.19-2.45-2.65V20.64c0-.34-.21-.64-.46-.64H2.5c-.82 0-1.57-.42-2.04-1.14-.52-.8-.61-1.85-.22-2.74L5.61 3.89C6.66 1.49 8.8 0 11.2 0h37.37c2.4 0 4.54 1.49 5.59 3.89l5.37 12.23c.39.89.3 1.94-.22 2.74-.47.72-1.22 1.14-2.04 1.14h-6.34c-.24 0-.5.29-.5.71v21.64c0 1.46-1.1 2.65-2.44 2.65zm-9.61-2h9.59c.22 0 .46-.27.46-.65V20.71c0-1.49 1.12-2.71 2.5-2.71h6.34c.17 0 .29-.13.36-.23a.89.89 0 00.06-.84L52.32 4.7c-.73-1.66-2.17-2.69-3.76-2.69H11.2c-1.59 0-3.03 1.03-3.76 2.69L2.07 16.93a.92.92 0 00.06.84c.07.11.19.23.36.23h7.48c1.35 0 2.46 1.18 2.46 2.64v21.71c0 .38.24.65.46.65h9.56c-.05-6.18-.07-15.15-.07-15.49 0-4.14 3.39-7.51 7.56-7.51h1c4.17 0 7.56 3.37 7.56 7.51 0 .33-.04 9.21-.11 15.49z" fill="#1f2c5c"/></svg>