<svg xmlns="http://www.w3.org/2000/svg" viewBox="0 0 32.45 48.95"><defs><style>.d{fill:#1f2c5c}</style></defs><g id="b"><g id="c"><path class="d" d="M28.48 48.95H3.32c-1.08 0-2.06-.5-2.69-1.38-.63-.88-.8-1.96-.46-2.99l3.32-9.96a3.568 3.568 0 013.38-2.44h18.94c1.54 0 2.91.98 3.4 2.45l3.03 9.1c.41 1.22.21 2.53-.54 3.57s-1.93 1.65-3.22 1.65zM6.88 34.18c-.68 0-1.27.43-1.49 1.07l-3.32 9.96c-.13.41-.07.84.18 1.19s.64.55 1.07.55h25.16c.64 0 1.22-.3 1.6-.82.37-.52.47-1.17.27-1.77l-3.03-9.1a1.58 1.58 0 00-1.5-1.08H6.88z"/><path class="d" d="M16.22 0C8.36 0 1.96 6.4 1.96 14.27c0 6.15 3.92 11.59 9.75 13.54.87.29 1.4 2.07 2.49 6.37.56 2.2 1.49 5.88 2.08 6.18.67 0 2-4.41 2.65-6.52 1.13-3.71 1.87-6 2.86-6.42 5.29-2.24 8.71-7.4 8.71-13.15C30.49 6.4 24.09 0 16.22 0zm-.02 17.43a2.949 2.949 0 110-5.9 2.949 2.949 0 110 5.9z"/></g></g></svg>