<svg version="1.1" id="レイヤー_1" xmlns="http://www.w3.org/2000/svg" x="0" y="0" viewBox="0 0 58.9 46.3" xml:space="preserve"><style>.st0{fill:#f7931e}</style><g id="b"><g id="c"><path class="st0" d="M28.3 13.8l3.1 2.4S10.2 45.4 9.7 45.4H2.4c-.8 0-1.4-.8-1.4-1.8v-1.9c0-1.2.8-2.2 1.7-2.2h3.7L25.8 14c.7-.6 1.9-.9 2.5-.2z"/><path class="st0" d="M9.7 46.3H2.3c-1.3 0-2.4-1.2-2.4-2.8v-1.9c0-.8.3-1.6.7-2.2.5-.6 1.2-1 2-1h3.2L25 13.2c1-.9 2.8-1.3 3.9-.3l3.8 3-.6.8C10.9 46.1 10.4 46.3 9.7 46.3zm-7-5.8c-.2 0-.3.2-.4.2-.2.2-.3.6-.3.9v1.9c0 .5.2.8.4.8h6.9c1.9-2.2 13-17.4 20.7-28l-2.4-1.9c-.2-.2-.7-.1-1.1.2L6.9 40.5H2.7z"/><path class="st0" d="M38.5 16h-5.4c-1.1 0-2.2-.4-3-1.3-.8-.8-1.2-1.9-1.2-3V4.3c0-1.1.5-2.2 1.3-3C30.9.4 32 0 33.1 0h5.4c1.1 0 2.2.4 3 1.3.8.8 1.2 1.9 1.2 3v7.4c0 1.1-.5 2.2-1.3 3-.7.9-1.7 1.3-2.9 1.3zm-5.4-2h5.4c.6 0 1.2-.2 1.6-.7s.7-1 .7-1.6V4.3c0-.6-.2-1.2-.7-1.6s-1-.7-1.6-.7h-5.4c-.6 0-1.2.2-1.6.7s-.7 1-.7 1.6v7.4c0 .6.2 1.2.7 1.6.4.4 1 .7 1.6.7z"/><ellipse transform="rotate(-89.83 35.515 42.717)" class="st0" cx="35.5" cy="42.7" rx="2.6" ry="6.6"/><path class="st0" d="M35.6 46.3c-1.9 0-3.7-.3-5.1-.9-2.2-.9-2.5-2.1-2.5-2.8s.3-1.9 2.6-2.8c1.4-.5 3.1-.8 5-.8 3.8 0 7.6 1.3 7.5 3.7 0 2.4-3.8 3.6-7.5 3.6zm-.1-5.2c-1.6 0-3.1.2-4.2.7-1 .4-1.3.8-1.3.9 0 .1.3.5 1.3.9 1.1.5 2.7.7 4.3.7 3.6 0 5.5-1.2 5.5-1.6 0-.4-1.9-1.6-5.6-1.6z"/><path transform="rotate(-89.83 35.415 30.26)" class="st0" d="M21.1 29.1h28.6v2.3H21.1z"/><path class="st0" d="M37.5 45.6h-4.3l.1-30.6h4.3l-.1 30.6zm-2.3-2.1h.3l.1-26.5h-.3l-.1 26.5zm18-4c-.3 0-.6 0-.8-.1-.8-.2-1.4-.7-1.7-1.4L40.2 18.8c-.4-.7-.5-1.5-.2-2.2.2-.7.7-1.4 1.4-1.7l2.8-1.5c.7-.4 1.5-.5 2.2-.2s1.4.7 1.7 1.4l10.4 19.1c.4.7.5 1.5.2 2.2-.2.8-.7 1.4-1.4 1.7l-2.8 1.5c-.3.3-.8.4-1.3.4zM42 17.8L52.4 37c.1.2.3.4.5.5.2.1.5 0 .7-.1l2.8-1.5c.2-.1.4-.3.5-.5.1-.2 0-.5-.1-.7L46.4 15.5c-.1-.2-.3-.4-.5-.4-.2-.1-.5 0-.7.1l-2.8 1.5c-.2.1-.4.3-.5.5s0 .4.1.6z"/><path transform="rotate(-28.526 48.352 23.29)" class="st0" d="M45.1 22.3h6.5v2h-6.5z"/><path transform="rotate(-28.526 51.324 30.576)" class="st0" d="M48.1 29.6h6.5v2h-6.5z"/><path class="st0" d="M53.9 45.5L38.3 17h-11v-2h12.2l16.2 29.5zM32.8 1h2v13h-2zm4 0h2v13h-2z"/></g></g></svg>