<svg version="1.1" id="レイヤー_1" xmlns="http://www.w3.org/2000/svg" x="0" y="0" viewBox="0 0 56.8 47" xml:space="preserve"><style>.st0{fill:#f7931e}</style><g id="b"><g id="c"><path class="st0" d="M48.9 27.4c-2.9 0-5.5-1.6-6.8-4-1.3 2.4-3.9 4-6.8 4s-5.5-1.6-6.9-4c-1.3 2.4-3.9 4-6.9 4s-5.5-1.6-6.9-4c-1.3 2.4-3.9 4-6.8 4-4.3 0-7.8-3.5-7.8-7.9 0-.1 0-.3.2-.5L12.9.4c.2-.2.5-.4.8-.4H43c.3 0 .6.2.8.4L56.6 19c.1.2.2.4.2.6 0 4.3-3.5 7.8-7.9 7.8zm-5.8-7.8c0 3.2 2.6 5.9 5.8 5.9s5.7-2.5 5.8-5.5L42.5 2H14.2L2 19.9c.2 3.1 2.7 5.5 5.8 5.5s5.9-2.6 5.9-5.9c0-.5.4-1 1-1s1 .5 1 1c0 3.2 2.6 5.9 5.9 5.9s5.9-2.6 5.9-5.9c0-.5.5-1 1-1s1 .5 1 1c0 3.2 2.6 5.9 5.8 5.9s5.8-2.6 5.8-5.9c0-.5.5-1 1-1s1 .5 1 1.1zM18.6 5.7l-3.9 10.7"/><path class="st0" d="M14.7 17.4c-.1 0-.2 0-.3-.1-.5-.2-.8-.8-.6-1.3l3.9-10.8c.2-.5.8-.8 1.3-.6s.8.8.6 1.3l-3.9 10.8c-.2.5-.6.7-1 .7zM38.2 5.7l3.9 10.7m0 1c-.4 0-.8-.2-.9-.7L37.2 6c-.2-.5.1-1.1.6-1.3.5-.2 1.1.1 1.3.6L43 16.1c.2.5-.1 1.1-.6 1.3h-.3zM27.9 17c-.5 0-1-.5-1-1V6c0-.6.5-1 1-1s1 .4 1 1v10c0 .5-.5 1-1 1zm20 30H9c-.6 0-1-.5-1-1V27.2h2V45h36.9V27h2v19c0 .5-.4 1-1 1z"/></g></g></svg>