<svg xmlns="http://www.w3.org/2000/svg" viewBox="0 0 56 42.2"><path d="M45 42.2H34.1v-1c.1-5.9.1-15.1.1-15.4 0-2.9-2.3-5.2-5.2-5.2h-1c-2.9 0-5.2 2.3-5.2 5.2 0 .3 0 9.7.1 15.4v.9H12.1c-1.3 0-2.3-1.1-2.3-2.5V19.3c0-.3-.2-.6-.4-.6h-7c-.8 0-1.5-.4-1.9-1.1-.5-.8-.6-1.7-.2-2.6l5-11.5c1-2.2 3-3.7 5.2-3.7h35c2.2 0 4.2 1.4 5.2 3.7l5 11.5c.4.8.3 1.8-.2 2.6-.4.7-1.1 1.1-1.9 1.1h-5.9c-.2 0-.5.3-.5.7v20.3c0 1.3-1 2.5-2.2 2.5zm-9-1.9h9c.2 0 .4-.2.4-.6V19.4c0-1.4 1-2.5 2.3-2.5h5.9c.2 0 .3-.1.3-.2.1-.2.2-.5.1-.8L49 4.4c-.7-1.6-2-2.5-3.5-2.5h-35C9 1.9 7.6 2.8 7 4.4L2 15.9c-.1.3-.1.6.1.8.1.1.2.2.3.2h7c1.3 0 2.3 1.1 2.3 2.5v20.3c0 .4.2.6.4.6h9c0-5.8-.1-14.2-.1-14.5 0-3.9 3.2-7 7.1-7h.9c3.9 0 7.1 3.2 7.1 7 0 .3-.1 8.6-.1 14.5z" fill="#f7931e"/></svg>