<svg xmlns="http://www.w3.org/2000/svg" viewBox="0 0 48.44 48.44"><defs><style>.d{fill:#333}</style></defs><g id="b"><g id="c"><path class="d" d="M24.01 12.39V.76a23.1 23.1 0 00-11.62 3.12l5.82 10.07c1.71-.99 3.69-1.57 5.81-1.57z"/><path class="d" d="M23.04 1.75v9.7c-1.55.12-3.06.53-4.47 1.2l-4.85-8.4c2.88-1.5 6.07-2.36 9.32-2.5m.97-.99a23.1 23.1 0 00-11.62 3.12l5.82 10.07c1.71-.99 3.69-1.57 5.81-1.57V.76zM12.04 5.22l4.86 8.41c-1.28.88-2.39 1.99-3.27 3.27l-8.41-4.86a22.41 22.41 0 016.82-6.82m.34-1.34a23.307 23.307 0 00-8.51 8.51l10.07 5.82c1.02-1.76 2.49-3.23 4.25-4.25l-5.8-10.08zM34.07 18.2l10.07-5.82a23.307 23.307 0 00-8.51-8.51l-5.82 10.07c1.76 1.02 3.23 2.49 4.25 4.25z"/><path class="d" d="M35.98 5.22a22.41 22.41 0 016.82 6.82l-8.41 4.86c-.88-1.28-1.99-2.39-3.27-3.27l4.86-8.41m-.34-1.34l-5.82 10.07c1.76 1.02 3.23 2.49 4.25 4.25l10.07-5.82a23.307 23.307 0 00-8.51-8.51z"/><path class="d" d="M43.77 13.72c1.5 2.88 2.36 6.07 2.5 9.32h-9.71c-.12-1.55-.53-3.06-1.2-4.47l8.41-4.86m.37-1.33L34.07 18.2c.99 1.71 1.57 3.69 1.57 5.81h11.62c0-4.24-1.14-8.2-3.12-11.62zM24.98 1.75c3.25.14 6.44 1 9.32 2.5l-4.86 8.41c-1.4-.67-2.92-1.08-4.47-1.2V1.75M24 .76v11.63c2.12 0 4.1.58 5.81 1.57l5.82-10.07A23.128 23.128 0 0024.01.77zM13.95 18.2L3.88 12.39A23.128 23.128 0 00.76 24.01h11.63c0-2.12.58-4.1 1.57-5.81z"/><path class="d" d="M4.25 13.72l8.41 4.86c-.67 1.4-1.08 2.92-1.2 4.47H1.75c.14-3.25 1-6.44 2.5-9.32m-.37-1.33A23.128 23.128 0 00.76 24.02h11.63c0-2.12.58-4.1 1.57-5.81L3.88 12.39zm30.51 18.72l8.41 4.86a22.41 22.41 0 01-6.82 6.82l-4.86-8.41c1.28-.88 2.39-1.99 3.27-3.27m-.32-1.3a11.703 11.703 0 01-4.25 4.25l5.82 10.07c3.53-2.04 6.47-4.98 8.51-8.51l-10.07-5.82zm-10.06 5.81v11.62c4.24 0 8.2-1.14 11.62-3.12l-5.82-10.07c-1.71.99-3.69 1.57-5.81 1.57z"/><path class="d" d="M29.45 35.36l4.86 8.41c-2.88 1.5-6.07 2.36-9.32 2.5v-9.71c1.55-.12 3.06-.53 4.47-1.2m.37-1.29c-1.71.99-3.69 1.57-5.81 1.57v11.62c4.24 0 8.2-1.14 11.62-3.12l-5.82-10.07zm-18.37-9.09c.12 1.55.53 3.06 1.2 4.47l-8.41 4.86c-1.5-2.88-2.36-6.07-2.5-9.32h9.71m.93-.97H.76c0 4.24 1.14 8.2 3.12 11.62l10.07-5.82c-.99-1.71-1.57-3.69-1.57-5.81zm23.24-.01c0 2.12-.58 4.1-1.57 5.81l10.07 5.82c1.98-3.42 3.12-7.39 3.12-11.62H35.63z"/><path class="d" d="M46.27 24.98c-.14 3.25-1 6.44-2.5 9.32l-8.41-4.86c.67-1.4 1.08-2.92 1.2-4.47h9.71m.99-.97H35.64c0 2.12-.58 4.1-1.57 5.81l10.07 5.82c1.98-3.42 3.12-7.39 3.12-11.62zm-33.31 5.82L3.88 35.64c2.04 3.53 4.98 6.47 8.51 8.51l5.82-10.07a11.703 11.703 0 01-4.25-4.25z"/><path class="d" d="M13.63 31.12c.88 1.28 1.99 2.39 3.27 3.27l-4.86 8.41a22.41 22.41 0 01-6.82-6.82l8.41-4.86m.32-1.3L3.88 35.64c2.04 3.53 4.98 6.47 8.51 8.51l5.82-10.07a11.703 11.703 0 01-4.25-4.25z"/><path class="d" d="M18.57 35.36c1.4.67 2.92 1.08 4.47 1.2v9.71c-3.25-.14-6.44-1-9.32-2.5l4.86-8.41m-.37-1.29l-5.82 10.07c3.42 1.98 7.39 3.12 11.62 3.12V35.64c-2.12 0-4.1-.58-5.81-1.57z"/><path class="d" d="M24.22 48.44C10.86 48.44 0 37.57 0 24.22S10.86 0 24.22 0s24.22 10.86 24.22 24.22-10.86 24.22-24.22 24.22zm0-46.5c-12.29 0-22.28 9.99-22.28 22.28S11.93 46.5 24.22 46.5s22.28-10 22.28-22.28-10-22.28-22.28-22.28z"/></g></g></svg>