<svg version="1.1" id="レイヤー_1" xmlns="http://www.w3.org/2000/svg" x="0" y="0" viewBox="0 0 58 41.4" xml:space="preserve"><style>.st0{fill:#f7931e}</style><g id="b"><g id="c"><path class="st0" d="M35 15.2H22.7c-.2 0-.4-.1-.5-.4s0-.4.2-.6l6.6-3.5c.1-.1.3-.1.5 0l5.8 3.5c.2.1.3.3.2.6-.1.2-.3.4-.5.4zm-10.4-1h8.6l-4-2.4-4.6 2.4z"/><path class="st0" d="M52.8 41.4H5.2c-.5 0-1-.4-1-1V23.7l-2.1-.1c-.2 0-.4-.1-.5-.2l-.6-.5c-.4-.3-.5-.8-.3-1.2-.1-.1-.1-.2-.1-.2l-.4-1.1c-.2-.4 0-.9.3-1.1s.9-.2 1.2 0l.6.5c.7 0 2-.2 2.9-.4 1-.2 2.5-.6 3.2-.8.1-.2.3-.5.4-.8.1-.4.3-1.2.3-1.7l-.2-.7c-.1-.4 0-.9.4-1.1.4-.2.9-.2 1.2.1l.9.8h1.7v-.3l-.2-.1c-.3-.1-.5-.3-.6-.6l-.3-.7c-.1-.3-.1-.6.1-.9l-.3-.6c-.1-.4.2-.8.5-1 .4-.2.9-.1 1.1.2l.6.7c.8 0 2.7-.1 3.9-.4 1.4-.4 3.1-1.2 5-2.2l.9-.5c2.2-1.1 3.9-2.5 4-2.5.4-.3.9-.3 1.2 0 0 0 1.8 1.4 4 2.5l1 .5c1.9.9 3.6 1.9 5 2.2 1.2.3 3.1.4 3.9.4l.6-.7c.3-.3.8-.4 1.1-.2s.6.6.5 1v.3l.1.1c.3.3.4.7.2 1.1l-.3.7c-.1.3-.4.5-.7.6l-.3.1v.3h2.5l.9-.8c.3-.3.8-.3 1.2-.1s.5.7.4 1.1l-.2.7c.1.5.2 1.3.3 1.7.1.3.3.6.4.8.7.2 2.2.5 3.2.8.9.2 2.3.3 2.9.4l.6-.5c.3-.3.8-.3 1.2 0 .4.3.5.7.3 1.1l-.4 1.1c0 .1-.1.2-.1.2.2.4 0 .9-.3 1.2l-.6.4c-.2.1-.3.2-.5.2l-2.1.1v16.8c0 .6-.4 1-1 1zM6.1 39.5h45.8V22.7c0-.5.4-1 .9-1l2.4-.1c-.8-.1-1.9-.2-2.7-.4-1.3-.3-3.6-.9-3.6-.9-.2 0-.4-.2-.5-.4 0-.1-.5-.7-.8-1.5-.2-.4-.3-.9-.4-1.4h-5.1c-.4 0-.8-.3-.9-.6s0-.8.3-1.1l.7-.6v-1c-1 0-2.6-.1-3.7-.4C37 13 35.1 12 33.1 11l-.9-.5c-1.6-.8-2.9-1.7-3.7-2.3-.7.5-2.1 1.5-3.7 2.3l-.9.5c-2 1-3.8 1.9-5.4 2.4-1.1.3-2.6.4-3.7.4v.8l.9.8c.3.3.4.7.3 1.1-.1.4-.5.6-.9.6h-4.3c-.1.5-.2 1-.4 1.4-.3.8-.8 1.4-.9 1.5-.1.2-.3.3-.5.4 0 0-2.3.6-3.6.9-.8.2-1.9.3-2.7.4l2.4.1c.5 0 .9.5.9 1l.1 16.7z"/><path class="st0" d="M36.8 11.8c-.5 0-1-.4-1-1V7.1c0-.3.2-.6.5-.8 0-.1-.1-.2 0-.4l.1-1c-.4-.3-.6-.6-.6-.9H22.3c0 .4-.2.7-.5.8l.1 1v.4c.1.2.3.5.3.8v3.7c0 .5-.4 1-1 1-.5 0-1-.4-1-1V7.9L19 7.8c-.3 0-.5-.2-.7-.4l-.4-.6c-.2-.3-.3-.8 0-1.1.1-.2.3-.3.5-.4-.1-.4.1-.9.5-1.1.3-.2.7-.2 1 0v-.3c0-.3.1-.5.3-.7.1-.1.2-.2.3-.2 0-.3.1-.5.3-.7-.2-.2-.3-.4-.3-.7V1c0-.3.1-.6.4-.8 0-.2.3-.3.6-.2l.6.1c.1 0 .2-.1.4-.1h.5c.5 0 1 .4 1 1 0 .4-.2.7-.4 1h11c-.2-.2-.4-.5-.4-1s.4-1 1-1h.6c.1 0 .3 0 .4.1l.4-.1c.3-.1.6 0 .8.2.2.2.4.5.4.8v.6c0 .3-.1.5-.3.7.2.2.3.4.3.7v.1c.1 0 .2.1.3.2.2.2.3.5.3.7v.3c.3-.2.7-.2 1 0 .4.2.6.7.5 1.1.2.1.3.2.4.4.2.3.2.8 0 1.1l-.4.6c-.2.2-.4.4-.7.4l-1.4.1v2.8c0 .5-.5 1-1 1zm-8.8 16h-2.9c-.3 0-.5-.2-.5-.5v-4.9c0-.3.2-.5.5-.5H28c.3 0 .5.2.5.5v4.9c0 .3-.2.5-.5.5zm-2.4-1h2V23h-2v3.8zm7.3 1H30c-.3 0-.5-.2-.5-.5v-4.9c0-.3.2-.5.5-.5h2.9c.3 0 .5.2.5.5v4.9c0 .3-.2.5-.5.5zm-2.4-1h2V23h-2v3.8zm-8.3 1H7.6c-.3 0-.5-.2-.5-.5s.2-.5.5-.5h14.1v-3.9H11.5c-.3 0-.5-.2-.5-.5s.2-.5.5-.5h10.7c.3 0 .5.2.5.5v4.9c0 .3-.2.5-.5.5zm28.2 0H35.8c-.3 0-.5-.2-.5-.5v-4.9c0-.3.2-.5.5-.5h10.7c.3 0 .5.2.5.5s-.2.5-.5.5H36.3v3.9h14.1c.3 0 .5.2.5.5s-.2.5-.5.5zm-6.8-8.7H15.4c-.3 0-.5-.2-.5-.5s.2-.5.5-.5h28.2c.3 0 .5.2.5.5s-.2.5-.5.5z"/></g></g></svg>