<svg xmlns="http://www.w3.org/2000/svg" viewBox="0 0 56 42.16"><path d="M44.96 42.16H34.13v-.95c.08-5.89.12-15.11.12-15.44 0-2.85-2.32-5.16-5.18-5.16H28c-2.87 0-5.2 2.32-5.2 5.16 0 .34.03 9.68.07 15.44v.94h-10.8c-1.27 0-2.3-1.11-2.3-2.48V19.34c0-.32-.2-.6-.43-.6h-7c-.77 0-1.47-.39-1.91-1.07-.49-.75-.57-1.73-.21-2.56L5.25 3.65C6.24 1.4 8.24 0 10.49 0h35.02c2.24 0 4.25 1.4 5.24 3.65l5.03 11.46c.36.83.29 1.81-.21 2.56-.44.68-1.14 1.07-1.91 1.07h-5.94c-.22 0-.47.27-.47.66v20.28c0 1.37-1.03 2.48-2.29 2.48zm-9-1.87h8.99c.2 0 .43-.25.43-.61V19.4c0-1.4 1.05-2.54 2.34-2.54h5.94c.16 0 .28-.12.34-.22.12-.18.19-.48.06-.79L49.03 4.39c-.68-1.56-2.03-2.52-3.52-2.52H10.49c-1.49 0-2.84.97-3.52 2.52L1.94 15.86a.82.82 0 00.06.79c.06.1.18.22.34.22h7c1.27 0 2.3 1.11 2.3 2.47v20.34c0 .36.23.61.43.61h8.96a4744 4744 0 01-.07-14.51c0-3.88 3.18-7.04 7.08-7.04h.94c3.9 0 7.08 3.16 7.08 7.04 0 .31-.03 8.62-.1 14.51z" fill="#333"/></svg>