<svg data-name="グループ 3115" xmlns="http://www.w3.org/2000/svg" width="30" height="30"><defs><clipPath id="a"><path data-name="長方形 1303" fill="rgba(0,0,0,0)" d="M0 0h30v30H0z"/></clipPath></defs><g data-name="グループ 3040" clip-path="url(#a)" fill="#004ea2"><path data-name="パス 13006" d="M15 2.7c4.005 0 4.48.015 6.061.087a8.3 8.3 0 012.785.517 4.644 4.644 0 011.725 1.122 4.644 4.644 0 011.122 1.725 8.3 8.3 0 01.517 2.786c.072 1.581.087 2.056.087 6.061s-.015 4.48-.087 6.061a8.3 8.3 0 01-.517 2.785 4.967 4.967 0 01-2.847 2.847 8.3 8.3 0 01-2.785.517c-1.581.072-2.056.087-6.061.087s-4.48-.015-6.061-.087a8.3 8.3 0 01-2.786-.517 4.644 4.644 0 01-1.725-1.122 4.644 4.644 0 01-1.122-1.725 8.3 8.3 0 01-.517-2.785C2.718 19.48 2.7 19.005 2.7 15s.015-4.48.087-6.061a8.3 8.3 0 01.517-2.786 4.644 4.644 0 011.125-1.724 4.644 4.644 0 011.724-1.122 8.3 8.3 0 012.786-.517C10.52 2.718 10.995 2.7 15 2.7M15 0c-4.074 0-4.585.017-6.184.09a11.007 11.007 0 00-3.641.7 7.348 7.348 0 00-2.657 1.73A7.348 7.348 0 00.787 5.174a11.007 11.007 0 00-.7 3.641C.017 10.415 0 10.926 0 15s.017 4.585.09 6.184a11.007 11.007 0 00.7 3.641 7.348 7.348 0 001.73 2.656 7.348 7.348 0 002.657 1.73 11.007 11.007 0 003.641.7c1.6.073 2.111.09 6.184.09s4.585-.017 6.184-.09a11.007 11.007 0 003.641-.7 7.673 7.673 0 004.387-4.387 11.007 11.007 0 00.7-3.641c.073-1.6.09-2.111.09-6.184s-.017-4.585-.09-6.184a11.007 11.007 0 00-.7-3.641 7.348 7.348 0 00-1.73-2.657 7.348 7.348 0 00-2.658-1.73 11.007 11.007 0 00-3.641-.7C19.585.017 19.074 0 15 0"/><path data-name="パス 13007" d="M15 7.297a7.7 7.7 0 107.7 7.7 7.7 7.7 0 00-7.7-7.7m0 12.7a5 5 0 115-5 5 5 0 01-5 5"/><path data-name="パス 13008" d="M24.807 6.993a1.8 1.8 0 11-1.8-1.8 1.8 1.8 0 011.8 1.8"/></g></svg>