<svg version="1.1" id="レイヤー_1" xmlns="http://www.w3.org/2000/svg" x="0" y="0" viewBox="0 0 48.4 48.4" xml:space="preserve"><style>.st0{fill:#f7931e}</style><g id="b"><g id="c"><path class="st0" d="M24 12.4V.8c-4.2 0-8.2 1.1-11.6 3.1L18.2 14c1.7-1 3.7-1.6 5.8-1.6z"/><path class="st0" d="M23 1.7v9.7c-1.5.1-3.1.5-4.5 1.2l-4.9-8.4c3-1.5 6.2-2.3 9.4-2.5m1-.9c-4.2 0-8.2 1.1-11.6 3.1L18.2 14c1.7-1 3.7-1.6 5.8-1.6V.8zM12 5.2l4.9 8.4c-1.3.9-2.4 2-3.3 3.3L5.2 12C7 9.3 9.3 7 12 5.2m.4-1.3c-3.5 2-6.5 5-8.5 8.5L14 18.2c1-1.8 2.5-3.2 4.2-4.2L12.4 3.9zm21.7 14.3l10.1-5.8c-2-3.5-5-6.5-8.5-8.5L29.9 14c1.7 1 3.1 2.4 4.2 4.2z"/><path class="st0" d="M36 5.2c2.7 1.8 5 4.1 6.8 6.8l-8.4 4.9c-.9-1.3-2-2.4-3.3-3.3L36 5.2m-.4-1.3L29.8 14c1.8 1 3.2 2.5 4.2 4.2l10.1-5.8c-2-3.6-4.9-6.5-8.5-8.5z"/><path class="st0" d="M43.8 13.7c1.5 2.9 2.4 6.1 2.5 9.3h-9.7c-.1-1.5-.5-3.1-1.2-4.5l8.4-4.8m.3-1.3L34 18.2c1 1.7 1.6 3.7 1.6 5.8h11.6c.1-4.2-1.1-8.2-3.1-11.6zM25 1.7c3.2.1 6.4 1 9.3 2.5l-4.9 8.4c-1.4-.6-2.9-1-4.4-1.1V1.7m-1-.9v11.6c2.1 0 4.1.6 5.8 1.6l5.8-10.1C32.2 1.9 28.2.8 24 .8zM13.9 18.2l-10-5.8C1.9 15.8.8 19.8.8 24h11.6c0-2.1.6-4.1 1.5-5.8z"/><path class="st0" d="M4.2 13.7l8.4 4.9c-.6 1.4-1 2.9-1.1 4.4H1.8c.1-3.2 1-6.4 2.4-9.3m-.3-1.3C1.9 15.8.8 19.8.8 24h11.6c0-2.1.6-4.1 1.6-5.8L3.9 12.4zm30.5 18.7l8.4 4.9c-1.8 2.7-4.1 5-6.8 6.8l-4.9-8.4c1.3-.9 2.4-2 3.3-3.3m-.3-1.3c-1 1.8-2.5 3.2-4.2 4.2l5.8 10.1c3.5-2 6.5-5 8.5-8.5l-10.1-5.8zM24 35.6v11.6c4.2 0 8.2-1.1 11.6-3.1L29.8 34c-1.7 1-3.7 1.6-5.8 1.6z"/><path class="st0" d="M29.5 35.4l4.9 8.4c-2.9 1.5-6.1 2.4-9.3 2.5v-9.7c1.4-.2 3-.6 4.4-1.2m.3-1.3c-1.7 1-3.7 1.6-5.8 1.6v11.6c4.2 0 8.2-1.1 11.6-3.1l-5.8-10.1zM11.5 25c.1 1.5.5 3.1 1.2 4.5l-8.4 4.9c-1.5-2.9-2.4-6.1-2.5-9.3l9.7-.1m.9-1H.8c0 4.2 1.1 8.2 3.1 11.6L14 29.8c-1-1.7-1.6-3.7-1.6-5.8zm23.2 0c0 2.1-.6 4.1-1.6 5.8l10.1 5.8c2-3.4 3.1-7.4 3.1-11.6H35.6z"/><path class="st0" d="M46.3 25c-.1 3.2-1 6.4-2.5 9.3l-8.4-4.9c.7-1.4 1.1-2.9 1.2-4.5l9.7.1m1-1H35.6c0 2.1-.6 4.1-1.6 5.8l10.1 5.8c2-3.4 3.2-7.4 3.2-11.6zm-33.4 5.8l-10 5.8c2 3.5 5 6.5 8.5 8.5L18.2 34c-1.7-.9-3.2-2.4-4.3-4.2z"/><path class="st0" d="M13.6 31.1c.9 1.3 2 2.4 3.3 3.3L12 42.8C9.3 41 7 38.7 5.2 36l8.4-4.9m.3-1.3l-10 5.8c2 3.5 5 6.5 8.5 8.5L18.2 34c-1.8-.9-3.2-2.4-4.3-4.2zm4.7 5.6c1.4.7 2.9 1.1 4.5 1.2v9.7c-3.2-.1-6.4-1-9.3-2.5l4.8-8.4m-.4-1.3l-5.8 10.1c3.4 2 7.4 3.1 11.6 3.1V35.6c-2.1 0-4.1-.5-5.8-1.5z"/><path class="st0" d="M24.2 48.4C10.9 48.4 0 37.6 0 24.2S10.9 0 24.2 0s24.2 10.9 24.2 24.2-10.8 24.2-24.2 24.2zm0-46.5c-12.3 0-22.3 10-22.3 22.3s10 22.3 22.3 22.3 22.3-10 22.3-22.3-10-22.3-22.3-22.3z"/></g></g></svg>