<svg xmlns="http://www.w3.org/2000/svg" viewBox="0 0 60.5 44.2"><defs><style>.e{fill:#fff;stroke:#fff;stroke-miterlimit:10;stroke-width:.5px}</style></defs><g id="b"><g id="c"><path class="e" d="M30.27 39.95H.25V23.5l.05-.16c.13-.39 3.36-9.62 9.9-14.21 4.81-3.37 10.51-5 13.24-5.79.28-.08.57-.16.8-.23V1.14L25 .95c.11-.03 1.83-.7 5.24-.7 3.42 0 5.13.67 5.24.7l.76.19v1.97c.23.07.52.15.8.23 2.74.78 8.44 2.41 13.24 5.79 6.54 4.59 9.77 13.82 9.9 14.21l.05.16v16.46H30.27zm-.05-2h28.02V23.72c-.44-1.2-3.53-9.24-9.1-13.18-4.53-3.21-10.01-4.79-12.65-5.55-1.68-.49-2.25-.65-2.25-1.5V2.43c-.99-.19-1.86-.48-4-.48-2.14 0-3.01.29-4 .48v1.06c0 .85-.57 1.02-2.25 1.5-2.63.76-8.11 2.34-12.65 5.55-5.56 3.94-8.65 11.98-9.09 13.18v14.23h27.98z"/><path d="M58.25 21.56s-12.67-1.96-27.3-1.79c-17.03.2-29.7 2.58-29.7 2.58v3.17s15.83-2.77 29.69-2.77 27.31 1.98 27.31 1.98v-3.17z" fill="#fff" stroke="#fff" stroke-miterlimit="10" stroke-width=".5" fill-rule="evenodd"/><path class="e" d="M1.35 25.61s-.05 0-.07-.02c-.02-.02-.04-.05-.04-.08v-3.16c0-.05.04-.09.08-.1.13-.02 12.82-2.37 29.61-2.57 14.41-.17 27.09 1.76 27.22 1.78.05 0 .09.05.09.1v3.15s-.01.06-.04.08c-.02.02-.05.03-.08.02-.13-.02-13.56-1.97-27.2-1.97S1.53 25.58 1.37 25.61h-.02z"/><path class="e" d="M40.75 23.45h3v20h-3z"/><path class="e" d="M43.75 43.95h-3c-.28 0-.5-.22-.5-.5v-20c0-.28.22-.5.5-.5h3c.28 0 .5.22.5.5v20c0 .28-.22.5-.5.5zm-2.5-1h2v-19h-2v19zm-24.5-19.5h3v20h-3z"/><path class="e" d="M19.75 43.95h-3c-.28 0-.5-.22-.5-.5v-20c0-.28.22-.5.5-.5h3c.28 0 .5.22.5.5v20c0 .28-.22.5-.5.5zm-2.5-1h2v-19h-2v19zm34.13-27.51c-.11-.03-11.31-2.8-21.13-2.8s-20.77 2.77-20.88 2.8l-.25-.97c.11-.03 11.18-2.83 21.12-2.83s21.26 2.8 21.37 2.83l-.24.97zm1.76 4c-.12-.03-12.32-2.8-23.02-2.8s-22.63 2.77-22.75 2.8l-.23-.97c.12-.03 12.16-2.82 22.98-2.82s23.12 2.8 23.25 2.82l-.22.97z"/></g></g></svg>