<svg xmlns="http://www.w3.org/2000/svg" viewBox="0 0 58 41.44"><defs><style>.d{fill:#333}</style></defs><g id="b"><g id="c"><path class="d" d="M35.01 15.16H22.67c-.22 0-.42-.15-.47-.37-.05-.22.05-.44.25-.55l6.56-3.47a.51.51 0 01.48.01l5.78 3.47c.19.11.28.34.22.55-.06.21-.25.36-.47.36zm-10.38-.97h8.62l-4.04-2.42-4.58 2.42z"/><path class="d" d="M52.85 41.44H5.15a.97.97 0 01-.97-.97V23.66l-2.1-.1c-.19 0-.38-.08-.54-.19l-.58-.43a.957.957 0 01-.31-1.16l-.03-.04a.803.803 0 01-.13-.24l-.43-1.15a.977.977 0 01.35-1.14c.36-.26.85-.24 1.19.04l.56.47c.66-.05 2.04-.18 2.93-.38.97-.21 2.52-.59 3.21-.76.12-.2.29-.48.41-.8.15-.38.28-1.16.34-1.68l-.22-.66c-.14-.42.02-.88.38-1.12.37-.24.85-.21 1.18.08l.88.76h1.66v-.32l-.23-.07c-.28-.09-.5-.3-.61-.57l-.29-.72a.99.99 0 01.09-.9l-.08-.54a.98.98 0 01.54-1.02c.38-.18.85-.09 1.14.23l.62.69c.84-.02 2.74-.09 3.91-.4 1.35-.35 3.11-1.25 4.98-2.2l.93-.47c2.18-1.1 3.94-2.48 3.96-2.5.35-.28.85-.28 1.21 0 .02.01 1.79 1.4 3.96 2.5l.93.47c1.87.95 3.63 1.85 4.98 2.2 1.17.3 3.07.38 3.91.4l.62-.69c.29-.32.75-.41 1.14-.23s.61.6.54 1.02l-.05.34s.04.03.06.05c.28.28.36.69.22 1.05l-.29.72c-.12.29-.36.5-.66.58l-.33.08c.03.1.05.2.05.3h2.53l.88-.76c.33-.29.81-.32 1.18-.08.37.24.52.7.38 1.12l-.22.66c.06.53.19 1.31.34 1.68.13.31.29.6.41.8.7.17 2.24.55 3.21.76.89.2 2.27.33 2.93.38l.56-.47c.34-.28.83-.3 1.19-.04s.5.72.35 1.14l-.43 1.15a.92.92 0 01-.13.24l-.03.04c.17.41.05.89-.31 1.16l-.58.43c-.16.12-.34.18-.54.19l-2.1.1v16.81c0 .54-.44.97-.97.97zM6.13 39.49h45.75V22.73c0-.52.41-.95.93-.97l2.39-.11v-.03c-.77-.07-1.88-.2-2.7-.38-1.31-.29-3.63-.87-3.63-.87a.918.918 0 01-.54-.36c-.05-.07-.52-.7-.85-1.51-.16-.39-.28-.93-.36-1.4h-5.06a.972.972 0 01-.62-1.72l.7-.59v-.67c0-.1.01-.19.04-.28-1.04-.04-2.58-.15-3.68-.44-1.55-.4-3.41-1.35-5.38-2.35l-.93-.47a27.93 27.93 0 01-3.68-2.26c-.74.54-2.1 1.46-3.68 2.26l-.93.47c-1.97 1-3.82 1.95-5.38 2.35-1.1.28-2.64.39-3.68.44.03.09.04.18.04.28v.49l.92.77c.31.26.43.69.29 1.08-.14.38-.51.64-.91.64h-4.3c-.08.47-.2 1-.36 1.4a6.98 6.98 0 01-.85 1.51 1 1 0 01-.54.36s-2.32.58-3.63.87c-.82.18-1.93.31-2.7.38v.03l2.39.11c.52.02.93.45.93.97v16.76z"/><path class="d" d="M36.75 11.76h-.01c-.54 0-.97-.45-.96-.98l.04-3.74c0-.34.18-.64.45-.81a.972.972 0 01-.05-.38l.08-1.04a.966.966 0 01-.48-.84c-.09 0-.17-.01-.25-.03-.08.02-.17.03-.25.03H22.71c-.09 0-.17-.01-.25-.03-.08.02-.17.03-.25.03 0 .36-.19.67-.48.84l.08 1.04c0 .13 0 .26-.05.38.27.17.44.47.45.81l.04 3.74c0 .54-.43.98-.96.98h-.01c-.53 0-.97-.43-.97-.96l-.03-2.84-1.23-.08a.967.967 0 01-.71-.39l-.43-.58a.962.962 0 01-.03-1.12c.11-.17.27-.29.45-.37V5.4c-.11-.43.08-.87.47-1.09.31-.17.68-.16.97.01l-.02-.29c-.02-.27.07-.54.26-.73.08-.09.18-.16.28-.21v-.1c0-.29.12-.54.32-.72a.968.968 0 01-.32-.72V.97c0-.29.13-.57.36-.76.23-.19.53-.26.82-.19l.6.13c.12-.05.25-.08.38-.08h.58c.54 0 .97.44.97.97 0 .43-.23.74-.44.97h10.97c-.21-.23-.44-.54-.44-.97 0-.54.44-.97.97-.97h.58c.14 0 .27.03.38.08l.6-.13c.28-.06.59 0 .82.19.23.18.36.46.36.76v.58c0 .29-.12.54-.32.72.2.18.32.44.32.72v.1c.11.05.2.12.28.21.18.2.28.46.26.73l-.02.29a.975.975 0 011.44 1.08v.02c.17.07.33.2.44.37.23.34.21.79-.03 1.12l-.43.58c-.17.23-.43.37-.71.39l-1.23.08-.03 2.84c0 .53-.44.96-.97.96zm-8.72 16.06h-2.92a.49.49 0 01-.49-.49v-4.87c0-.27.22-.49.49-.49h2.92c.27 0 .49.22.49.49v4.87c0 .27-.22.49-.49.49zm-2.43-.97h1.95v-3.89H25.6v3.89zm7.29.97h-2.92a.49.49 0 01-.49-.49v-4.87c0-.27.22-.49.49-.49h2.92c.27 0 .49.22.49.49v4.87c0 .27-.22.49-.49.49zm-2.43-.97h1.95v-3.89h-1.95v3.89zm-8.27.97H7.58a.49.49 0 010-.98h14.11v-3.89H11.48a.49.49 0 010-.98h10.71c.27 0 .49.22.49.49v4.87c0 .27-.22.49-.49.49zm28.23 0h-14.6a.49.49 0 01-.49-.49v-4.87c0-.27.22-.49.49-.49h10.71a.49.49 0 010 .98H36.31v3.89h14.11a.49.49 0 010 .98zm-6.82-8.76H15.37a.49.49 0 010-.98H43.6a.49.49 0 010 .98z"/></g></g></svg>