<svg version="1.1" id="レイヤー_1" xmlns="http://www.w3.org/2000/svg" x="0" y="0" viewBox="0 0 58.1 47" xml:space="preserve"><style>.st0{fill:#f7931e}</style><g id="b"><g id="c"><path class="st0" d="M12.6 36.6c-1.8 0-3.5-.1-4.3-.2h-.2L5 35.7c-.5-.1-.8-.5-.8-1s.4-.9.9-.9l1.6-.2v-.4c.1-.4.4-.7.8-.7h.2c-.1-.3 0-.6.2-.8.2-.3.6-.5 1.1-.4 0 0 3.1.8 5.3.3 2.2-.5 2.8-1 3.2-2.7.4-1.6-1.4-3.9-3.3-5.5-2-1.7-8.3-7.7-9.8-9.3-.5-.5-5.8-7.8-4.3-9.9 1-1.4 8-4.2 10.5-4.2h.2c2.7.2 7.7 1.7 10.2 2.8.8.3 2.8.9 5.1 1.6C30.7 5.6 36.4 7.2 39 8.7c4.1 2.4 8.8 7.4 9.7 9.8.7 2.1 2.6 8.1 2.7 8.3l-1.9.6c0-.1-1.9-6.2-2.6-8.2-.6-1.7-5-6.5-8.8-8.7-2.4-1.4-8.2-3-12.4-4.2-2.5-.7-4.4-1.3-5.3-1.6-2.3-1-7-2.5-9.5-2.6C9 1.9 3 4.3 2 5.3c0 1.2 2.7 5.9 4.1 7.4 1.4 1.6 7.7 7.5 9.6 9.2 1.1.9 4.6 4.3 3.9 7.5-.6 2.8-2.3 3.7-4.8 4.2-1.4.3-3.1.2-4.4 0 0 .1 0 .1-.1.2-.1.2-.3.4-.5.5v.3c3.6.2 7.4 0 8.1-.5.6-.5 1.2-.9 1.8-1.2 1-.6 1.9-1.2 2.5-2.3.5-1.1.6-2.6.6-3.7 0-.5-.1-1-.1-1.3 0-.5.4-1 .9-1s1 .3 1.1.9c0 .1.1.6.1 1.3.3 2.6.9 5.3 1.7 5.6 1.1.5 1.4.4 1.4.4s-.1 0-.2.2l1.7 1c-.2.3-1.1 1.3-3.7.2-.8-.4-1.4-1.3-1.8-2.4-.9 1.5-2 2.2-3.1 2.8-.5.3-1.1.6-1.5 1-1.1.8-4 1-6.7 1z"/><path class="st0" d="M36.8 39.7c-1.2 0-2.1-.2-2.9-.3-.5-.1-1-.2-1.3-.2-.9 0-1.8-.3-2.6-1.1-1.1-1-1.8-2.7-1.8-4.2 0-2.1 2.3-4 6.9-5.6 2.2-.8 10.7-2.1 11-2.2l.3 2c-.1 0-8.6 1.4-10.7 2.1-4.1 1.4-5.6 2.8-5.6 3.7 0 1 .5 2.1 1.2 2.8.4.4.8.5 1.1.5.5 0 1.1.1 1.8.2 1.7.3 4 .7 8-.9l7.7-3.5.8 1.8-7.7 3.6c-2.6 1-4.6 1.3-6.2 1.3z"/><path class="st0" d="M37.3 47c-.2 0-.4-.1-.6-.2-.3-.3-.5-.8-.3-1.2l.8-1.9-3.3 2.1c-.4.3-1 .2-1.3-.2-.3-.4-.3-1 .1-1.3l3.2-3.2-1.2.3c-.4.1-.9-.1-1.1-.5-.2-.4-.2-.9.1-1.2l1.2-1.2.6.6 3.4-.9c.4-.1.9.1 1.1.5s.2.9-.2 1.2l-.3.3c.2 0 .3.1.5.2.3.3.5.8.3 1.2l-.7 1.4c2.9-2.2 7.3-5.3 8.9-6.3 1.9-1.2 5.5-4.7 7.1-6.2-.5-.4-1.3-1-2.2-1.4-1.2-.5-3.4-.1-4.1.1l-.5-1.9c.3-.1 3.5-.9 5.5.1 1.9.9 3.4 2.4 3.5 2.5.2.2.3.4.3.7s-.1.4-.2.6c-.2.2-5.6 5.6-8.2 7.2-2.5 1.6-11.7 8.3-11.8 8.4-.1.1-.3.2-.6.2zm18-21h-4.9v-2h3.5c.2-.9.3-1.9.1-2.1-1-.6-5.2-2.9-5.2-2.9l1-1.8c.2.1 4.3 2.3 5.3 3 1.5 1 .8 3.8.5 5l-.3.8zm-44-17c-1.1 0-2-.9-2-2s.9-2 2-2 2 .9 2 2-.9 2-2 2zm0-2zm1.6 8.7c-.5 0-1.7-.1-3.8-.8-2.7-.9-4.6-2.2-4.7-2.3L5.6 11s1.7 1.2 4.1 2c2.3.7 3.3.7 3.3.7l.2 2h-.3z"/></g></g></svg>