<svg version="1.1" id="レイヤー_1" xmlns="http://www.w3.org/2000/svg" x="0" y="0" viewBox="0 0 32.5 49" xml:space="preserve"><style>.st0{fill:#f7931e}</style><g id="b"><g id="c"><path class="st0" d="M28.5 48.9H3.3c-1.1 0-2.1-.5-2.7-1.4s-.8-2-.5-3l3.3-10c.5-1.5 1.8-2.4 3.4-2.4h18.9c1.5 0 2.9 1 3.4 2.5l3 9.1c.4 1.2.2 2.5-.5 3.6s-1.8 1.6-3.1 1.6zM6.9 34.2c-.7 0-1.3.4-1.5 1.1l-3.3 10c-.2.3-.1.7.2 1.1s.6.5 1.1.5h25.2c.6 0 1.2-.3 1.6-.8.4-.5.5-1.2.3-1.8l-3-9.1c-.2-.7-.8-1.1-1.5-1.1-.2.1-19.1.1-19.1.1z"/><path class="st0" d="M16.2 0C8.4 0 2 6.4 2 14.3c0 6.1 3.9 11.6 9.8 13.5.9.3 1.4 2.1 2.5 6.4.6 2.2 1.5 5.9 2.1 6.2.7 0 2-4.4 2.6-6.5 1.1-3.7 1.9-6 2.9-6.4 5.3-2.2 8.7-7.4 8.7-13.1C30.5 6.4 24.1 0 16.2 0zm0 17.4c-1.6 0-2.9-1.3-2.9-2.9s1.3-2.9 2.9-2.9 3 1.3 3 2.9-1.4 2.9-3 2.9z"/></g></g></svg>