<svg xmlns="http://www.w3.org/2000/svg" viewBox="0 0 56.78 47"><defs><style>.d{fill:#333}</style></defs><g id="b"><g id="c"><path class="d" d="M48.93 27.43c-2.94 0-5.5-1.62-6.85-4.02-1.34 2.4-3.91 4.02-6.85 4.02s-5.5-1.62-6.85-4.02c-1.34 2.4-3.91 4.02-6.85 4.02s-5.5-1.62-6.85-4.02a7.84 7.84 0 01-6.85 4.02c-4.33 0-7.85-3.52-7.85-7.85 0-.2.06-.4.17-.56L12.89.44c.19-.27.5-.44.83-.44h29.35c.33 0 .64.16.83.44l12.72 18.59c.11.17.17.36.17.56 0 4.33-3.52 7.85-7.85 7.85zm-5.85-7.85c0 3.22 2.62 5.85 5.85 5.85s5.68-2.46 5.84-5.55L42.54 2h-28.3L2.01 19.89c.16 3.09 2.72 5.55 5.84 5.55s5.85-2.62 5.85-5.85c0-.55.45-1 1-1s1 .45 1 1c0 3.22 2.62 5.85 5.85 5.85s5.85-2.62 5.85-5.85c0-.55.45-1 1-1s1 .45 1 1c0 3.22 2.62 5.85 5.85 5.85s5.85-2.62 5.85-5.85c0-.55.45-1 1-1s1 .45 1 1zM18.61 5.68L14.7 16.44"/><path class="d" d="M14.7 17.44a.998.998 0 01-.94-1.34l3.91-10.76c.19-.52.76-.79 1.28-.6.52.19.79.76.6 1.28l-3.91 10.76c-.15.41-.53.66-.94.66zM38.17 5.68l3.92 10.76m0 1c-.41 0-.79-.25-.94-.66L37.24 6.02a.998.998 0 01.6-1.28.998.998 0 011.28.6l3.91 10.76a.998.998 0 01-.94 1.34zM27.9 17c-.55 0-1-.45-1-1V6c0-.55.45-1 1-1s1 .45 1 1v10c0 .55-.45 1-1 1zm20 30H8.96c-.55 0-1-.45-1-1V27.25h2V45H46.9V27h2v19c0 .55-.45 1-1 1z"/></g></g></svg>