<svg version="1.1" id="レイヤー_1" xmlns="http://www.w3.org/2000/svg" x="0" y="0" viewBox="0 0 60 43.7" xml:space="preserve"><style>.st0{fill:#f7931e}</style><g id="b"><g id="c"><path class="st0" d="M30 39.7H0V23.2l.1-.2c.1-.4 3.4-9.6 9.9-14.2 4.8-3.4 10.5-5 13.2-5.8.3 0 .6-.1.8-.1v-2l.8-.2c.1 0 1.8-.7 5.2-.7s5.1.7 5.2.7l.8.2v2c.2.1.5.2.8.2 2.7.8 8.4 2.4 13.2 5.8 6.5 4.6 9.8 13.8 9.9 14.2v16.7L30 39.7zm0-2h28V23.5c-.4-1.2-3.5-9.2-9.1-13.2-4.5-3.2-10-4.8-12.7-5.6-1.6-.5-2.2-.6-2.2-1.5v-1c-1-.2-1.9-.5-4-.5s-3 .3-4 .5v1.1c0 .8-.6 1-2.2 1.5-2.6.8-8.1 2.3-12.6 5.6-5.6 3.9-8.6 12-9.1 13.2v14.2l27.9-.1z"/><path d="M58 21.3s-12.7-2-27.3-1.8C13.7 19.7 1 22.1 1 22.1v3.2s15.8-2.8 29.7-2.8 27.3 2 27.3 2v-3.2z" fill-rule="evenodd" clip-rule="evenodd" fill="#f7931e"/><path class="st0" d="M1.1 25.4l-.1-.1v-3.2c0-.1 0-.1.1-.1s12.8-2.4 29.6-2.6c14.4-.2 27.1 1.8 27.2 1.8 0 0 .1 0 .1.1v3.2h-.1c-.1 0-13.6-2-27.2-2S1.3 25.3 1.1 25.4z"/><path class="st0" d="M40.5 23.2h3v20h-3z"/><path class="st0" d="M43.5 43.7h-3c-.3 0-.5-.2-.5-.5v-20c0-.3.2-.5.5-.5h3c.3 0 .5.2.5.5v20c0 .3-.2.5-.5.5zm-2.5-1h2v-19h-2v19zM16.5 23.2h3v20h-3z"/><path class="st0" d="M19.5 43.7h-3c-.3 0-.5-.2-.5-.5v-20c0-.3.2-.5.5-.5h3c.3 0 .5.2.5.5v20c0 .3-.2.5-.5.5zm-2.5-1h2v-19h-2v19zm34.1-27.5c-.1 0-11.3-2.8-21.1-2.8S9.2 15.2 9.1 15.2l-.2-1c.1 0 11.2-2.8 21.1-2.8s21.3 2.8 21.4 2.8l-.3 1zm1.8 4c-.1 0-12.3-2.8-23-2.8S7.2 19.2 7.1 19.2l-.2-1c.1 0 12.2-2.8 23-2.8s23.1 2.8 23.2 2.8l-.2 1z"/></g></g></svg>