<svg xmlns="http://www.w3.org/2000/svg" viewBox="0 0 2920 564.01"><defs><filter id="d" filterUnits="userSpaceOnUse"><feOffset/><feGaussianBlur result="e" stdDeviation="3.8"/><feFlood flood-color="#000" flood-opacity=".75"/><feComposite in2="e" operator="in"/><feComposite in="SourceGraphic"/></filter><style>.f{fill:#fff}</style></defs><g id="b"><g filter="url(#d)" id="c"><path class="f" d="M498.77 324.94c-16.49-59.77-45.93-104.23-88.25-134.87 15.08-30.35 29.4-62.79 42.36-97.38l-78.81-35.58s-18.15 42.32-44.4 95.05c-10.09-2.83-20.5-5.34-31.42-7.34-105.5-19.27-240.93 29.65-282.08 137.87-41.15 108.22 5.24 179.38 39.66 200.87 34.42 21.5 91.29 25.2 151.89-22.98 39.89-31.71 102.32-98.18 160.84-194.44 6.53 4.68 56.46 42.81 50.16 111.42-6.73 73.38-29.93 123.78-29.93 123.78l83.05 34.1s55.37-107.48 26.94-210.51zm-269.5-2c-65.8 80.6-100.66 108.56-129.39 80.6-28.73-27.96-11.79-100.5 31.67-136.76 43.46-36.27 73.66-41.56 105.33-44.58 25.61-2.44 44.94-.43 48.68 14-18.37 33-37.8 64.09-56.3 86.75zm717.22 3.19s-46.64 55.58-140.66 97.82c-94.03 42.24-151.19 13.34-149.69-77.82s32.35-214.92 46.64-274.95l-86.5-14.08s-36.86 123.02-42.88 228.26c-6.02 105.24-4.51 190.46 64.69 227.52 69.2 37.05 152.7 25.2 218.14-11.86 65.44-37.05 136.15-89.67 136.15-89.67l-45.88-85.23z"/><path class="f" d="M778.19 271.3c27.6 0 49.98-22.37 49.98-49.98s-22.37-49.98-49.98-49.98-49.98 22.37-49.98 49.98 22.37 49.98 49.98 49.98zm14.28-78.53c11.83 0 21.42 9.59 21.42 21.42s-9.59 21.42-21.42 21.42-21.42-9.59-21.42-21.42 9.59-21.42 21.42-21.42zm99.95 28.55c27.6 0 49.98-22.37 49.98-49.98s-22.37-49.98-49.98-49.98-49.98 22.37-49.98 49.98 22.37 49.98 49.98 49.98zm0-78.53c11.83 0 21.42 9.59 21.42 21.42s-9.59 21.42-21.42 21.42S871 176.04 871 164.21s9.59-21.42 21.42-21.42zm291.74 110.55s-14.11 27.06-35.64 50.37c-21.54 23.31-41.59 3.76-35.64-56.39 5.94-60.14 28.22-139.08 37.13-174.42l-82.43-15.79s-33.42 109.76-38.62 195.47c-5.2 85.71 12.62 141.34 49.75 155.62 37.13 14.28 95.05 9.02 149.26-90.97l-43.81-63.9zM1347.19 35.7l-86.95 21.52s40.07 112.79 36.29 233.73c-3.78 120.95-89.98 232.99-89.98 232.99l86.95 40.07c38.56-56.39 89.98-152.11 91.49-289.38 1.51-137.27-37.81-238.93-37.81-238.93zm440.27 145.99l4.52-86.04s-158.18-33.8-328.41 23.05l12.05 88.35s116-47.63 311.84-25.35zm21.5 238.35s-225.69 59.24-324.85-70.21l-56.24 68.75s53.28 72.41 161.31 92.89c108.04 20.48 224.21 2.19 224.21 2.19l-4.44-93.62zm312.84 18.79c-53.86 34.41-118.19 5.24-113.71-61.34 4.49-66.57 29.17-118.93 64.33-166.8 35.16-47.87 57.6-81.53 23.94-120.43-33.66-38.9-146.62-11.97-240.13 29.17l25.43 77.79s71.81-28.42 95-34.41c23.19-5.98 26.93 0 9.72 23.94s-60.59 99.48-68.07 175.03c-7.48 75.55 24.69 139.87 78.55 165.31 53.86 25.43 184.77 40.39 266.31-129.4l-67.33-65.08s-20.2 71.81-74.06 106.22zm120.69-317.46l-36.43 13.46c53.12 101.74 92.78 229.28 92.78 229.28l78.56-37.6c-13.41-49.4-29.65-94.06-44.49-130.22-42.94-5.15-78.19-35.12-90.43-74.92z"/><path class="f" d="M2345.28 0c-49.29 0-89.24 39.96-89.24 89.24s39.95 89.24 89.24 89.24 89.24-39.96 89.24-89.24S2394.57 0 2345.28 0zm24.99 107.09c-15.77 0-28.56-12.79-28.56-28.56s12.79-28.56 28.56-28.56 28.56 12.79 28.56 28.56-12.79 28.56-28.56 28.56zm534.41 273.93c-13.72-36.23-33.66-64.06-60.19-85.01 13.03-21.77 25.72-45.1 37.81-70.55l-69.63-36.09c-5.54-2.87-5.85-4.45-5.15-10.33l7.63-64.05c-47.89-5.02-91.97-6.99-131.72-7.02-.04 0-.06-.01-.1-.01-6.51.02-7.47-1.1-6.48-5.55 8.84-33.46 16.68-48.3 16.68-48.3l-86.55-11.27c-5.7 21.72-10.94 45.06-15.68 68.7-88.68 7.09-139.51 22.23-139.51 22.23l8.95 73.65s21.77-7.66 103.64-17.37c12.39-1.49 13.21.28 11.86 9.72-2.37 16.95-4.33 33.2-5.82 48.24-.44 4.46-.83 9.05-1.2 13.69-56.45 21.78-99.06 61.18-125.65 102.04-42.53 65.38-20.15 142.79 13.43 169.09 33.58 26.3 94.01 41.33 174.59-12.78 52.47-35.23 111.25-83.06 166.49-155.4 15.48 15.67 26.83 33.98 31.23 53.94 11.94 54.11-5.97 117.99-5.97 117.99l82.82 20.29s32.08-87.18-1.49-175.85zm-247.81-144.9c1.27-15.14 2.8-29.11 4.47-42.11.87-6.41 3.37-7.59 8.4-7.93 67.5-2.22 113.22 4.13 131.05 7.29 6.34 1.09 5.65 2.68 3.25 8.68-5.25 12.9-15.14 35.51-29.8 62.11-25.83-7.5-54.95-12.29-87.81-14.59-10.49-.73-20.63-.73-30.6-.4.34-4.32.65-8.53 1.03-13.04zm-136.32 234.09c-32.2-3.69-28.46-56.8 9.73-95.9 8.31-8.5 17.94-16.43 28.46-23.62 3.03-1.73 3.78-.73 3.91 1.9 0 1.79-.01 3.61 0 5.36v.13c.04 24.16.69 43.88 1.33 53.11 1.5 21.39 15.72 19.18 39.69 19.92.83.03 1.55.06 2.32.09 8.33.53 9.32 3.56 2.56 8.26-46.08 32.54-63.9 33.51-88 30.75zm146.69-72.22c-2.08 1.83-3.93 3.42-5.93 5.17-7.08 5.97-11.84 6.02-12.2-8.36-.44-13.63-.66-33.66.08-61.05.36-16.91 5.1-18.74 15.19-19.51 9.82-.38 19.62.11 29.26 1.78 10.32 1.79 20.74 4.68 30.99 8.46 2.79 1.23 4.15 3.06-.13 9.11-16.42 22.82-35.48 45.16-57.26 64.39z"/></g></g></svg>