<svg version="1.1" id="レイヤー_1" xmlns="http://www.w3.org/2000/svg" x="0" y="0" viewBox="0 0 445 90" xml:space="preserve"><style>.st4{fill:#fff}</style><g id="b"><g id="c"><path d="M29.8 26.3c2.2 1.5 5.7.4 7.8-2.5 2.1-2.9 1.9-6.6-.3-8.1s-5.7-.4-7.8 2.5c-2.1 2.9-2 6.6.3 8.1z" fill="#f7b400"/><path d="M31.7 29.5c-5.6-1.2-7.7 0-8.8 1.3-2 2.3-.9 6.9.8 9.3 1.7 2.4 4.4 5.8 3.2 14.4-1.2 8.6-7.3 17.2-10.9 21-3.7 3.8-9.6 6.7-8.8 10.2.8 3.5 6.1 5.6 13.3 3.3 7.2-2.3 16.6-8.5 23-21s2.7-24.3.4-28.4c-2.2-4-6.6-8.9-12.2-10.1z" fill="#00a68d"/><path d="M68.4 42.1c-2-3.8-4.2-6.6-8.8-8.9s-11.5-1.5-12.5 2.9c-.6 2.7 1 5.2 3.5 6.5s5.5 2.6 7.5 5.6 2.6 6.2 2.5 9.9c-.1 3.7-1.5 7-1.8 9.3-.3 2.3.4 4.3 2.2 4.5s4.5-.8 6.5-3.9c2-3.1 3.2-6.4 3.5-11.6s-.6-10.5-2.6-14.3z" fill="#3a81c4"/><path d="M18.9 39.7c-.7-2.5-2.4-4.4-3.4-6.9s-2.2-8.8-.8-12.5c1.4-3.7 3.9-7 6.7-9.4s4.8-2.4 6.6-4.1c1.9-1.7 2.4-3.4 1.9-4.6C29.1.1 24.8-.5 20.6.4c-4.2.9-9.9 3.2-14.3 8.4S.7 18.8.2 23.2.8 32.4 2.6 36c1.9 3.6 4.6 7.7 9.8 8.9s7.2-2.8 6.5-5.2z" fill="#ec7986"/><path class="st4" d="M98.9 33s.6 9.3-2 18.7C94.3 61.1 88 67.4 88 67.4V73s10.7-7.7 14.7-19.1S106 33 106 33h-7.1zm28.3 17.8c-4.1-11.2-9.8-18.8-9.8-18.8H113s4.9 9.6 7.7 20.2S124 73 124 73h8.1c-.1 0-.8-11-4.9-22.2zM133 48h23.5l1.5 6h-23.3z"/><path class="st4" d="M190 55.8s-3.1-2.3-8.2-5.5c2.9-7.1 3.3-13.7 3.3-18.3h-7.3s.8 6.9-1.8 14.7c-5.3-3.2-11.7-6.8-18.3-10v5.1s6.8 3.9 15.2 9.2c.3.2.7.5 1 .7-.3.6-.7 1.2-1 1.8-6.2 10-11.6 12.1-18.9 14.7V72s12.9-.6 21.6-11.2c1.5-1.8 2.7-3.6 3.8-5.4 5.9 4.1 10.6 7.9 10.6 7.9v-7.5zm6.5-14.8H193s3.4 5.4 4.4 13h5.6s-1.7-7.2-6.5-13zM212 54c-1-6.7-6.2-13-6.2-13H202c3.5 5.8 4.7 13 4.7 13h5.3z"/><path class="st4" d="M225 41h-6.2s1.4 9.6-4.4 18.5c-5.8 8.9-15.3 9.1-15.3 9.1V72c7-.6 15.4-2.8 21.1-11.7C225.8 51.4 225 41 225 41zm5 11.7V49s4.4-2.3 7.2-7.4C240 36.5 240 32 240 32h29s.4 15.6-7.9 26.4C252.8 69.2 243 71.6 234.3 72v-3.4s13.4-1.8 20.5-12.8 6.3-18.4 6.3-18.4h-15.6c.1 0-3.7 11.8-15.5 15.3zm74.7-19.2c-6.4-2.4-18.1-2.6-25.8 5.4s-6.4 19.6-4.1 23.5 6 7.4 11.5 4.9 8.7-10.8 9.9-16.8c1.2-6 1.6-13.2 1.6-13.2 4.8.8 9.2 4.1 10.9 10.3 2.1 7.8-2.3 20.6-14.8 21.1L295 72s15.5-.1 19.8-13.5-3.7-22.7-10.1-25zM283.2 62c-2.3.2-4.4-6.1-2.3-13.2 1.8-5.9 5.6-9.4 10.1-10.7-.1.9-.5 7-1.9 14.1-1.5 7.5-3.6 9.6-5.9 9.8zm48.2-10.5c0-16.6-.1-20.5-.1-20.5H324v22.1c0 11.2 9.7 18.9 27 18.9v-3.7s-19.6-.2-19.6-16.8zM348 42c-1.5-6.9-5-11-5-11h-4c2.9 5.9 3.5 11 3.5 11h5.5zm3.4-11H348c2 5.2 3 11 3 11h5c-1.2-6.9-4.6-11-4.6-11zm9.6 1h7v24h-7zm23.5-1v19.9c0 17.6-20.5 17.4-20.5 17.4V72c15 0 28-5.7 28-21V31h-7.5zm35.5 8h-5.3v-3.7h4.7v-1.8h-4.7V30h-2.5v3.5h-2c.2-.7.3-1.5.3-2.5h-1.9s.2 3.5-1.6 5.6v1.5s1.6-.8 2.6-2.9h2.6V39h-5.3v1.5h3.9c-.2 1.4-1.3 6-4.8 8.4v1.7s4.2-2.3 6.2-6.7V51h2.5v-6.7c.8 1.5 2.5 4.1 5.3 6v-1.9s-2.8-2-4.3-7.9h4.3V39zm-14.2 4.2v-2.3c-.8-.9-1.6-2.2-2.2-3.2v-2.3h2.4v-1.8h-2.4V30h-2.8v3.5h-3.5v1.8h3.5s-.4 5.9-3.8 8.9v2.3s2.5-1.8 3.8-4.2V51h2.8V40.9c1 1.1 2.2 2.3 2.2 2.3zm26.1-2.7h4.4V39h-11.6v1.5h4.5v8.4c-1.6.1-3.4.1-5.2 0V51s8.1.2 14-1.4v-1.8s-2.4.6-6.1.9v-8.2z"/><path class="st4" d="M441.1 42.5c-1-2.3-1.4-5-1.5-7.7h4.7v-1.7h-4.8V30h-2.9v3.1H424v1.7h12.8c.1 2.2.5 4.7 1.1 6.6 1.5 4.3 5.2 7.6 7.1 8.6v-2s-2.3-1.8-3.9-5.5z"/><path class="st4" d="M444 33c-.1-1.5-.7-3-.7-3H441c.6 1.5.8 3 .8 3h2.2zm-34 20h-3.8s-2.9 4.4-9.2 6.3v1.5s1.5-.2 3.5-1V61h14.9v-1.1c1.1.3 2.3.6 3.5.6V59c.1.1-5.1-1.1-8.9-6zm-8 6c2-.8 4.3-2.1 6.3-4 0 0 2.1 2.5 5.7 4h-12zm11.3 8s.8 1.1 1.4 2.8c-1.4.3-6.6 1.5-12.7 1.3 0 0 2.2-2 3.2-5.4h13V64H398v1.7h4.6c-.3 1-1.4 4.1-3.8 5.6v1.4s9.4.7 16.4-1.4c.2.6.3 1.2.4 1.8h3.5s-1.4-3.3-3.9-6h-1.9V67zm26.2 3.9V59.6h4.8v-2.1h-4.8V53h-3v4.5h-4.3v2.1h4.3v11.3H431V73h14v-2.1z"/><path class="st4" d="M433 67.5v-1.9c-1.3-.8-2.5-2.2-3-3 1.2-1.7 2.1-3.8 2.4-6.4h-3V53h-3.1v3.2h-3.6v1.6h6.7s-1 6.1-7.3 8.9v1.9s2-.7 4.2-2.3V73h2.7v-8.4c2.1 1.8 4 2.9 4 2.9z"/></g></g></svg>