<?xml version="1.0" encoding="UTF-8"?><svg xmlns="http://www.w3.org/2000/svg" viewBox="0 0 60.08 43.08"><defs><style>.d{fill:#fff;stroke:#fff;stroke-miterlimit:10;stroke-width:.5px;}</style></defs><g id="a"/><g id="b"><g id="c"><g><path class="d" d="M36.22,15.83h-12.68c-.23,0-.43-.16-.49-.38-.06-.22,.05-.46,.25-.56l6.74-3.56c.16-.08,.34-.08,.49,.01l5.94,3.56c.19,.12,.29,.35,.22,.56-.06,.22-.26,.37-.48,.37Zm-10.66-1h8.86l-4.15-2.49-4.71,2.49Z"/><path class="d" d="M54.54,42.83H5.54c-.55,0-1-.45-1-1V24.56l-2.16-.1c-.2,0-.39-.08-.55-.2l-.59-.44c-.38-.28-.5-.78-.32-1.2l-.03-.04c-.06-.08-.1-.16-.14-.25l-.44-1.18c-.16-.42-.01-.9,.36-1.17,.37-.26,.87-.25,1.22,.04l.58,.48c.68-.06,2.09-.19,3.01-.39,1-.22,2.59-.61,3.3-.79,.13-.2,.3-.5,.43-.82,.15-.39,.29-1.19,.35-1.73l-.23-.67c-.14-.43,.02-.9,.39-1.15,.38-.25,.87-.22,1.21,.08l.9,.79h1.71v-.33l-.23-.07c-.28-.09-.51-.3-.62-.58l-.3-.74c-.12-.31-.08-.65,.09-.92l-.08-.56c-.07-.44,.16-.86,.56-1.05,.39-.19,.87-.1,1.17,.23l.64,.7c.87-.02,2.81-.1,4.02-.41,1.38-.36,3.2-1.28,5.11-2.26l.96-.49c2.24-1.13,4.05-2.55,4.07-2.57,.36-.29,.88-.29,1.24,0,.02,.01,1.84,1.44,4.07,2.57l.96,.49c1.92,.98,3.73,1.9,5.11,2.26,1.21,.31,3.15,.39,4.02,.41l.64-.7c.3-.33,.77-.42,1.17-.23s.63,.62,.56,1.05l-.05,.34s.04,.04,.06,.05c.28,.28,.37,.71,.22,1.08l-.3,.74c-.12,.3-.37,.52-.68,.6l-.34,.09c.03,.1,.05,.2,.05,.3h2.6l.9-.79c.34-.3,.84-.33,1.21-.08,.38,.25,.54,.72,.39,1.15l-.23,.67c.07,.54,.2,1.34,.35,1.73,.13,.32,.3,.62,.43,.82,.71,.18,2.3,.56,3.3,.79,.92,.2,2.33,.34,3.01,.39l.58-.48c.35-.29,.85-.31,1.22-.04,.37,.26,.52,.74,.36,1.17l-.44,1.18c-.03,.09-.08,.17-.14,.25l-.03,.04c.18,.42,.06,.91-.32,1.2l-.59,.44c-.16,.12-.35,.19-.55,.2l-2.16,.1v17.27c0,.55-.45,1-1,1Zm-48-2H53.54V23.6c0-.53,.42-.97,.95-1l2.46-.12v-.03c-.79-.07-1.93-.2-2.77-.39-1.34-.3-3.72-.89-3.72-.89-.22-.06-.42-.19-.56-.37-.05-.07-.53-.72-.87-1.56-.16-.4-.28-.96-.37-1.44h-5.2c-.42,0-.8-.26-.94-.66-.14-.4-.03-.84,.3-1.11l.72-.61v-.69c0-.1,.01-.19,.04-.28-1.07-.04-2.65-.16-3.78-.45-1.6-.41-3.5-1.38-5.52-2.41l-.95-.48c-1.62-.82-3.02-1.77-3.78-2.32-.76,.55-2.16,1.5-3.78,2.32l-.95,.48c-2.02,1.03-3.93,2-5.52,2.41-1.13,.29-2.71,.41-3.78,.45,.03,.09,.04,.19,.04,.28v.5l.94,.79c.32,.27,.44,.71,.29,1.11-.14,.39-.52,.66-.94,.66h-4.42c-.08,.48-.2,1.03-.37,1.44-.34,.84-.82,1.48-.87,1.56-.14,.18-.33,.31-.56,.37,0,0-2.38,.59-3.72,.89-.84,.19-1.98,.31-2.77,.39v.03l2.46,.12c.53,.03,.95,.47,.95,1v17.22Z"/><path class="d" d="M38,12.33h-.01c-.55,0-1-.46-.99-1.01l.04-3.84c0-.35,.19-.66,.46-.83-.04-.12-.06-.26-.05-.39l.08-1.06c-.29-.17-.49-.49-.49-.86-.09,0-.18-.01-.26-.03-.08,.02-.17,.03-.26,.03h-12.96c-.09,0-.18-.01-.26-.03-.08,.02-.17,.03-.26,.03,0,.37-.2,.69-.49,.86l.08,1.06c0,.13,0,.27-.05,.39,.28,.18,.46,.48,.46,.83l.04,3.84c0,.55-.44,1-.99,1.01h-.01c-.55,0-.99-.44-1-.99l-.03-2.91-1.27-.09c-.29-.02-.56-.16-.73-.4l-.45-.59c-.25-.34-.27-.8-.03-1.15,.12-.17,.28-.3,.46-.38v-.02c-.11-.44,.08-.9,.48-1.12,.32-.17,.7-.16,1,.01l-.02-.3c-.02-.28,.08-.55,.26-.75,.08-.09,.18-.16,.29-.22v-.1c0-.29,.13-.56,.33-.74-.2-.18-.33-.45-.33-.74v-.59c0-.3,.14-.59,.37-.78,.24-.19,.55-.26,.84-.2l.62,.13c.12-.05,.26-.08,.4-.08h.59c.55,0,1,.45,1,1,0,.45-.24,.76-.45,1h11.27c-.22-.24-.45-.55-.45-1,0-.55,.45-1,1-1h.59c.14,0,.27,.03,.4,.08l.62-.13c.29-.07,.6,0,.84,.2,.24,.19,.37,.48,.37,.78v.59c0,.29-.13,.56-.33,.74,.2,.18,.33,.45,.33,.74v.1c.11,.05,.21,.13,.29,.22,.19,.2,.29,.48,.26,.75l-.02,.3c.3-.18,.68-.19,1-.01,.4,.22,.59,.68,.48,1.12v.02c.18,.07,.34,.2,.46,.38,.23,.35,.22,.81-.03,1.15l-.45,.59c-.17,.23-.44,.38-.73,.4l-1.27,.09-.03,2.91c0,.55-.45,.99-1,.99Z"/><path class="d" d="M29.04,28.83h-3c-.28,0-.5-.22-.5-.5v-5c0-.28,.22-.5,.5-.5h3c.28,0,.5,.22,.5,.5v5c0,.28-.22,.5-.5,.5Zm-2.5-1h2v-4h-2v4Z"/><path class="d" d="M34.04,28.83h-3c-.28,0-.5-.22-.5-.5v-5c0-.28,.22-.5,.5-.5h3c.28,0,.5,.22,.5,.5v5c0,.28-.22,.5-.5,.5Zm-2.5-1h2v-4h-2v4Z"/><path class="d" d="M23.04,28.83H8.04c-.28,0-.5-.22-.5-.5s.22-.5,.5-.5h14.5v-4H12.04c-.28,0-.5-.22-.5-.5s.22-.5,.5-.5h11c.28,0,.5,.22,.5,.5v5c0,.28-.22,.5-.5,.5Z"/><path class="d" d="M52.04,28.83h-15c-.28,0-.5-.22-.5-.5v-5c0-.28,.22-.5,.5-.5h11c.28,0,.5,.22,.5,.5s-.22,.5-.5,.5h-10.5v4h14.5c.28,0,.5,.22,.5,.5s-.22,.5-.5,.5Z"/><path class="d" d="M45.04,19.83H16.04c-.28,0-.5-.22-.5-.5s.22-.5,.5-.5h29c.28,0,.5,.22,.5,.5s-.22,.5-.5,.5Z"/></g></g></g></svg>