<?xml version="1.0" encoding="UTF-8"?><svg xmlns="http://www.w3.org/2000/svg" viewBox="0 0 57.28 47.5"><defs><style>.d{fill:#fff;stroke:#fff;stroke-miterlimit:10;stroke-width:.5px;}</style></defs><g id="a"/><g id="b"><g id="c"><g><path class="d" d="M49.18,27.68c-2.94,0-5.5-1.62-6.85-4.02-1.34,2.4-3.91,4.02-6.85,4.02s-5.5-1.62-6.85-4.02c-1.34,2.4-3.91,4.02-6.85,4.02s-5.5-1.62-6.85-4.02c-1.34,2.4-3.91,4.02-6.85,4.02-4.33,0-7.85-3.52-7.85-7.85,0-.2,.06-.4,.17-.56L13.14,.69c.19-.27,.5-.44,.83-.44h29.35c.33,0,.64,.16,.83,.44l12.72,18.59c.11,.17,.17,.36,.17,.56,0,4.33-3.52,7.85-7.85,7.85Zm-5.85-7.85c0,3.22,2.62,5.85,5.85,5.85s5.68-2.46,5.84-5.55L42.79,2.25H14.49L2.26,20.14c.16,3.09,2.72,5.55,5.84,5.55s5.85-2.62,5.85-5.85c0-.55,.45-1,1-1s1,.45,1,1c0,3.22,2.62,5.85,5.85,5.85s5.85-2.62,5.85-5.85c0-.55,.45-1,1-1s1,.45,1,1c0,3.22,2.62,5.85,5.85,5.85s5.85-2.62,5.85-5.85c0-.55,.45-1,1-1s1,.45,1,1Z"/><g><line class="d" x1="18.86" y1="5.93" x2="14.95" y2="16.69"/><path class="d" d="M14.95,17.69c-.11,0-.23-.02-.34-.06-.52-.19-.79-.76-.6-1.28l3.91-10.76c.19-.52,.76-.79,1.28-.6,.52,.19,.79,.76,.6,1.28l-3.91,10.76c-.15,.41-.53,.66-.94,.66Z"/></g><g><line class="d" x1="38.42" y1="5.93" x2="42.34" y2="16.69"/><path class="d" d="M42.34,17.69c-.41,0-.79-.25-.94-.66l-3.91-10.76c-.19-.52,.08-1.09,.6-1.28,.52-.19,1.09,.08,1.28,.6l3.91,10.76c.19,.52-.08,1.09-.6,1.28-.11,.04-.23,.06-.34,.06Z"/></g><g><line class="d" x1="28.15" y1="6.25" x2="28.15" y2="16.25"/><path class="d" d="M28.15,17.25c-.55,0-1-.45-1-1V6.25c0-.55,.45-1,1-1s1,.45,1,1v10c0,.55-.45,1-1,1Z"/></g><path class="d" d="M48.15,47.25H9.21c-.55,0-1-.45-1-1V27.5h2v17.75H47.15V27.25h2v19c0,.55-.45,1-1,1Z"/></g></g></g></svg>