<?xml version="1.0" encoding="UTF-8"?><svg xmlns="http://www.w3.org/2000/svg" viewBox="0 0 60 43.7"><defs><style>.d,.e{fill:#333;}.e{fill-rule:evenodd;}</style></defs><g id="a"/><g id="b"><g id="c"><g><path class="d" d="M30.02,39.7H0V23.25l.05-.16c.13-.39,3.36-9.62,9.9-14.21,4.81-3.37,10.51-5,13.24-5.79,.28-.08,.57-.16,.8-.23V.89l.76-.19C24.87,.67,26.58,0,30,0c3.42,0,5.13,.67,5.24,.7l.76,.19v1.97c.23,.07,.52,.15,.8,.23,2.74,.78,8.44,2.41,13.24,5.79,6.54,4.59,9.77,13.82,9.9,14.21l.05,.16v16.46H30.02Zm-.05-2h28.02v-14.23c-.44-1.2-3.53-9.24-9.1-13.18-4.53-3.21-10.01-4.79-12.65-5.55-1.68-.49-2.25-.65-2.25-1.5v-1.06c-.99-.19-1.86-.48-4-.48h0c-2.14,0-3.01,.29-4,.48v1.06c0,.85-.57,1.02-2.25,1.5-2.63,.76-8.11,2.34-12.65,5.55C5.53,14.23,2.44,22.27,2,23.47v14.23H29.98Z"/><g><path class="e" d="M58,21.31s-12.67-1.96-27.3-1.79c-17.03,.2-29.7,2.58-29.7,2.58v3.17s15.83-2.77,29.69-2.77,27.31,1.98,27.31,1.98v-3.17Z"/><path class="d" d="M1.1,25.36s-.05,0-.07-.02c-.02-.02-.04-.05-.04-.08v-3.16c0-.05,.04-.09,.08-.1,.13-.02,12.82-2.37,29.61-2.57,14.41-.17,27.09,1.76,27.22,1.78,.05,0,.09,.05,.09,.1v3.15s-.01,.06-.04,.08c-.02,.02-.05,.03-.08,.02-.13-.02-13.56-1.97-27.2-1.97S1.28,25.33,1.12,25.36h-.02Z"/></g><g><rect class="d" x="40.5" y="23.2" width="3" height="20"/><path class="d" d="M43.5,43.7h-3c-.28,0-.5-.22-.5-.5V23.2c0-.28,.22-.5,.5-.5h3c.28,0,.5,.22,.5,.5v20c0,.28-.22,.5-.5,.5Zm-2.5-1h2V23.7h-2v19Z"/></g><g><rect class="d" x="16.5" y="23.2" width="3" height="20"/><path class="d" d="M19.5,43.7h-3c-.28,0-.5-.22-.5-.5V23.2c0-.28,.22-.5,.5-.5h3c.28,0,.5,.22,.5,.5v20c0,.28-.22,.5-.5,.5Zm-2.5-1h2V23.7h-2v19Z"/></g><path class="d" d="M51.13,15.19c-.11-.03-11.31-2.8-21.13-2.8s-20.77,2.77-20.88,2.8l-.25-.97c.11-.03,11.18-2.83,21.12-2.83s21.26,2.8,21.37,2.83l-.24,.97Z"/><path class="d" d="M52.89,19.19c-.12-.03-12.32-2.8-23.02-2.8s-22.63,2.77-22.75,2.8l-.23-.97c.12-.03,12.16-2.82,22.98-2.82s23.12,2.8,23.25,2.82l-.22,.97Z"/></g></g></g></svg>