<?xml version="1.0" encoding="utf-8"?>
<!-- Generator: Adobe Illustrator 26.1.0, SVG Export Plug-In . SVG Version: 6.00 Build 0)  -->
<svg version="1.1" id="レイヤー_1" xmlns="http://www.w3.org/2000/svg" xmlns:xlink="http://www.w3.org/1999/xlink" x="0px"
	 y="0px" viewBox="0 0 58.1 47" style="enable-background:new 0 0 58.1 47;" xml:space="preserve">
<style type="text/css">
	.st0{fill:#F7931E;}
</style>
<g id="a">
</g>
<g id="b">
	<g id="c">
		<g>
			<path class="st0" d="M12.6,36.6c-1.8,0-3.5-0.1-4.3-0.2c-0.1,0-0.1,0-0.2,0l-3.1-0.7c-0.5-0.1-0.8-0.5-0.8-1s0.4-0.9,0.9-0.9
				l1.6-0.2c0-0.1,0-0.3,0-0.4c0.1-0.4,0.4-0.7,0.8-0.7l0.2,0c-0.1-0.3,0-0.6,0.2-0.8c0.2-0.3,0.6-0.5,1.1-0.4c0,0,3.1,0.8,5.3,0.3
				c2.2-0.5,2.8-1,3.2-2.7c0.4-1.6-1.4-3.9-3.3-5.5c-2-1.7-8.3-7.7-9.8-9.3c-0.5-0.5-5.8-7.8-4.3-9.9c1-1.4,8-4.2,10.5-4.2
				c0.1,0,0.1,0,0.2,0c2.7,0.2,7.7,1.7,10.2,2.8c0.8,0.3,2.8,0.9,5.1,1.6C30.7,5.6,36.4,7.2,39,8.7c4.1,2.4,8.8,7.4,9.7,9.8
				c0.7,2.1,2.6,8.1,2.7,8.3l-1.9,0.6c0-0.1-1.9-6.2-2.6-8.2c-0.6-1.7-5-6.5-8.8-8.7c-2.4-1.4-8.2-3-12.4-4.2
				c-2.5-0.7-4.4-1.3-5.3-1.6c-2.3-1-7-2.5-9.5-2.6C9,1.9,3,4.3,2,5.3c0,1.2,2.7,5.9,4.1,7.4c1.4,1.6,7.7,7.5,9.6,9.2
				c1.1,0.9,4.6,4.3,3.9,7.5c-0.6,2.8-2.3,3.7-4.8,4.2c-1.4,0.3-3.1,0.2-4.4,0c0,0.1,0,0.1-0.1,0.2c-0.1,0.2-0.3,0.4-0.5,0.5
				c0,0.1,0,0.2,0,0.3c3.6,0.2,7.4,0,8.1-0.5c0.6-0.5,1.2-0.9,1.8-1.2c1-0.6,1.9-1.2,2.5-2.3c0.5-1.1,0.6-2.6,0.6-3.7
				c0-0.5-0.1-1-0.1-1.3c0-0.5,0.4-1,0.9-1c0.5,0,1,0.3,1.1,0.9c0,0.1,0.1,0.6,0.1,1.3c0.3,2.6,0.9,5.3,1.7,5.6
				c1.1,0.5,1.4,0.4,1.4,0.4c0,0-0.1,0-0.2,0.2l1.7,1c-0.2,0.3-1.1,1.3-3.7,0.2c-0.8-0.4-1.4-1.3-1.8-2.4c-0.9,1.5-2,2.2-3.1,2.8
				c-0.5,0.3-1.1,0.6-1.5,1C18.2,36.4,15.3,36.6,12.6,36.6L12.6,36.6z"/>
			<path class="st0" d="M36.8,39.7c-1.2,0-2.1-0.2-2.9-0.3c-0.5-0.1-1-0.2-1.3-0.2c-0.9,0-1.8-0.3-2.6-1.1c-1.1-1-1.8-2.7-1.8-4.2
				c0-2.1,2.3-4,6.9-5.6c2.2-0.8,10.7-2.1,11-2.2l0.3,2c-0.1,0-8.6,1.4-10.7,2.1c-4.1,1.4-5.6,2.8-5.6,3.7c0,1,0.5,2.1,1.2,2.8
				c0.4,0.4,0.8,0.5,1.1,0.5c0.5,0,1.1,0.1,1.8,0.2c1.7,0.3,4,0.7,8-0.9l7.7-3.5l0.8,1.8l-7.7,3.6C40.4,39.4,38.4,39.7,36.8,39.7
				L36.8,39.7z"/>
			<path class="st0" d="M37.3,47c-0.2,0-0.4-0.1-0.6-0.2c-0.3-0.3-0.5-0.8-0.3-1.2l0.8-1.9l-3.3,2.1c-0.4,0.3-1,0.2-1.3-0.2
				c-0.3-0.4-0.3-1,0.1-1.3l3.2-3.2l-1.2,0.3c-0.4,0.1-0.9-0.1-1.1-0.5c-0.2-0.4-0.2-0.9,0.1-1.2l1.2-1.2l0.6,0.6l3.4-0.9
				c0.4-0.1,0.9,0.1,1.1,0.5s0.2,0.9-0.2,1.2l-0.3,0.3c0.2,0,0.3,0.1,0.5,0.2c0.3,0.3,0.5,0.8,0.3,1.2L39.6,43
				c2.9-2.2,7.3-5.3,8.9-6.3c1.9-1.2,5.5-4.7,7.1-6.2c-0.5-0.4-1.3-1-2.2-1.4c-1.2-0.5-3.4-0.1-4.1,0.1l-0.5-1.9
				c0.3-0.1,3.5-0.9,5.5,0.1c1.9,0.9,3.4,2.4,3.5,2.5c0.2,0.2,0.3,0.4,0.3,0.7S58,31,57.9,31.2c-0.2,0.2-5.6,5.6-8.2,7.2
				C47.2,40,38,46.7,37.9,46.8C37.8,46.9,37.6,47,37.3,47L37.3,47z"/>
			<path class="st0" d="M55.3,26h-4.9v-2h3.5c0.2-0.9,0.3-1.9,0.1-2.1C53,21.3,48.8,19,48.8,19l1-1.8c0.2,0.1,4.3,2.3,5.3,3
				c1.5,1,0.8,3.8,0.5,5L55.3,26L55.3,26z"/>
			<path class="st0" d="M11.3,9c-1.1,0-2-0.9-2-2s0.9-2,2-2s2,0.9,2,2S12.4,9,11.3,9z M11.3,7L11.3,7z"/>
			<path class="st0" d="M12.9,15.7c-0.5,0-1.7-0.1-3.8-0.8c-2.7-0.9-4.6-2.2-4.7-2.3l1.2-1.6c0,0,1.7,1.2,4.1,2
				c2.3,0.7,3.3,0.7,3.3,0.7l0.2,2C13.2,15.7,13.1,15.7,12.9,15.7L12.9,15.7z"/>
		</g>
	</g>
</g>
</svg>
