<?xml version="1.0" encoding="UTF-8"?><svg xmlns="http://www.w3.org/2000/svg" viewBox="0 0 48.94 48.94"><defs><style>.d{fill:#fff;stroke:#fff;stroke-miterlimit:10;stroke-width:.5px;}</style></defs><g id="a"/><g id="b"><g id="c"><g><g><path class="d" d="M24.26,12.64V1.01c-4.24,0-8.2,1.14-11.62,3.12l5.82,10.07c1.71-.99,3.69-1.57,5.81-1.57Z"/><path class="d" d="M23.29,2V11.7c-1.55,.12-3.06,.53-4.47,1.2L13.97,4.5c2.88-1.5,6.07-2.36,9.32-2.5m.97-.99c-4.24,0-8.2,1.14-11.62,3.12l5.82,10.07c1.71-.99,3.69-1.57,5.81-1.57V1.01h0Z"/></g><path class="d" d="M12.29,5.47l4.86,8.41c-1.28,.88-2.39,1.99-3.27,3.27L5.47,12.29c1.75-2.74,4.08-5.07,6.82-6.82m.34-1.34c-3.53,2.04-6.47,4.98-8.51,8.51l10.07,5.82c1.02-1.76,2.49-3.23,4.25-4.25L12.64,4.13h0Z"/><g><path class="d" d="M34.32,18.45l10.07-5.82c-2.04-3.53-4.98-6.47-8.51-8.51l-5.82,10.07c1.76,1.02,3.23,2.49,4.25,4.25Z"/><path class="d" d="M36.23,5.47c2.74,1.75,5.07,4.08,6.82,6.82l-8.41,4.86c-.88-1.28-1.99-2.39-3.27-3.27l4.86-8.41m-.34-1.34l-5.82,10.07c1.76,1.02,3.23,2.49,4.25,4.25l10.07-5.82c-2.04-3.53-4.98-6.47-8.51-8.51h0Z"/></g><path class="d" d="M44.02,13.97c1.5,2.88,2.36,6.07,2.5,9.32h-9.71c-.12-1.55-.53-3.06-1.2-4.47l8.41-4.86m.37-1.33l-10.07,5.82c.99,1.71,1.57,3.69,1.57,5.81h11.62c0-4.24-1.14-8.2-3.12-11.62h0Z"/><path class="d" d="M25.23,2c3.25,.14,6.44,1,9.32,2.5l-4.86,8.41c-1.4-.67-2.92-1.08-4.47-1.2V2m-.97-.99V12.64c2.12,0,4.1,.58,5.81,1.57l5.82-10.07c-3.42-1.98-7.39-3.12-11.62-3.12h0Z"/><g><path class="d" d="M14.2,18.45L4.13,12.64c-1.98,3.42-3.12,7.39-3.12,11.62H12.64c0-2.12,.58-4.1,1.57-5.81Z"/><path class="d" d="M4.5,13.97l8.41,4.86c-.67,1.4-1.08,2.92-1.2,4.47H2c.14-3.25,1-6.44,2.5-9.32m-.37-1.33c-1.98,3.42-3.12,7.39-3.12,11.62H12.64c0-2.12,.58-4.1,1.57-5.81L4.13,12.64h0Z"/></g><path class="d" d="M34.64,31.37l8.41,4.86c-1.75,2.74-4.08,5.07-6.82,6.82l-4.86-8.41c1.28-.88,2.39-1.99,3.27-3.27m-.32-1.3c-1.02,1.76-2.49,3.23-4.25,4.25l5.82,10.07c3.53-2.04,6.47-4.98,8.51-8.51l-10.07-5.82h0Z"/><g><path class="d" d="M24.26,35.88v11.62c4.24,0,8.2-1.14,11.62-3.12l-5.82-10.07c-1.71,.99-3.69,1.57-5.81,1.57Z"/><path class="d" d="M29.7,35.61l4.86,8.41c-2.88,1.5-6.07,2.36-9.32,2.5v-9.71c1.55-.12,3.06-.53,4.47-1.2m.37-1.29c-1.71,.99-3.69,1.57-5.81,1.57v11.62c4.24,0,8.2-1.14,11.62-3.12l-5.82-10.07h0Z"/></g><path class="d" d="M11.71,25.23c.12,1.55,.53,3.06,1.2,4.47l-8.41,4.86c-1.5-2.88-2.36-6.07-2.5-9.32H11.71m.93-.97H1.01c0,4.24,1.14,8.2,3.12,11.62l10.07-5.82c-.99-1.71-1.57-3.69-1.57-5.81h0Z"/><g><path class="d" d="M35.88,24.26c0,2.12-.58,4.1-1.57,5.81l10.07,5.82c1.98-3.42,3.12-7.39,3.12-11.62h-11.62Z"/><path class="d" d="M46.52,25.23c-.14,3.25-1,6.44-2.5,9.32l-8.41-4.86c.67-1.4,1.08-2.92,1.2-4.47h9.71m.99-.97h-11.62c0,2.12-.58,4.1-1.57,5.81l10.07,5.82c1.98-3.42,3.12-7.39,3.12-11.62h0Z"/></g><g><path class="d" d="M14.2,30.07l-10.07,5.82c2.04,3.53,4.98,6.47,8.51,8.51l5.82-10.07c-1.76-1.02-3.23-2.49-4.25-4.25Z"/><path class="d" d="M13.88,31.37c.88,1.28,1.99,2.39,3.27,3.27l-4.86,8.41c-2.74-1.75-5.07-4.08-6.82-6.82l8.41-4.86m.32-1.3l-10.07,5.82c2.04,3.53,4.98,6.47,8.51,8.51l5.82-10.07c-1.76-1.02-3.23-2.49-4.25-4.25h0Z"/></g><path class="d" d="M18.82,35.61c1.4,.67,2.92,1.08,4.47,1.2v9.71c-3.25-.14-6.44-1-9.32-2.5l4.86-8.41m-.37-1.29l-5.82,10.07c3.42,1.98,7.39,3.12,11.62,3.12v-11.62c-2.12,0-4.1-.58-5.81-1.57h0Z"/><path class="d" d="M24.47,48.69C11.11,48.69,.25,37.82,.25,24.47S11.11,.25,24.47,.25s24.22,10.86,24.22,24.22-10.86,24.22-24.22,24.22Zm0-46.5C12.18,2.19,2.19,12.18,2.19,24.47s9.99,22.28,22.28,22.28,22.28-10,22.28-22.28S36.75,2.19,24.47,2.19Z"/></g></g></g></svg>