<?xml version="1.0" encoding="UTF-8"?><svg xmlns="http://www.w3.org/2000/svg" viewBox="0 0 58 41.44"><defs><style>.d{fill:#333;}</style></defs><g id="a"/><g id="b"><g id="c"><g><path class="d" d="M35.01,15.16h-12.34c-.22,0-.42-.15-.47-.37-.05-.22,.05-.44,.25-.55l6.56-3.47c.15-.08,.33-.07,.48,.01l5.78,3.47c.19,.11,.28,.34,.22,.55-.06,.21-.25,.36-.47,.36Zm-10.38-.97h8.62l-4.04-2.42-4.58,2.42Z"/><path class="d" d="M52.85,41.44H5.15c-.54,0-.97-.44-.97-.97V23.66l-2.1-.1c-.19,0-.38-.08-.54-.19l-.58-.43c-.37-.27-.49-.76-.31-1.16l-.03-.04c-.06-.07-.1-.16-.13-.24l-.43-1.15c-.16-.41-.01-.88,.35-1.14,.36-.26,.85-.24,1.19,.04l.56,.47c.66-.05,2.04-.18,2.93-.38,.97-.21,2.52-.59,3.21-.76,.12-.2,.29-.48,.41-.8,.15-.38,.28-1.16,.34-1.68l-.22-.66c-.14-.42,.02-.88,.38-1.12,.37-.24,.85-.21,1.18,.08l.88,.76h1.66v-.32l-.23-.07c-.28-.09-.5-.3-.61-.57l-.29-.72c-.12-.3-.08-.63,.09-.9l-.08-.54c-.06-.42,.16-.84,.54-1.02,.38-.18,.85-.09,1.14,.23l.62,.69c.84-.02,2.74-.09,3.91-.4,1.35-.35,3.11-1.25,4.98-2.2l.93-.47c2.18-1.1,3.94-2.48,3.96-2.5,.35-.28,.85-.28,1.21,0,.02,.01,1.79,1.4,3.96,2.5l.93,.47c1.87,.95,3.63,1.85,4.98,2.2,1.17,.3,3.07,.38,3.91,.4l.62-.69c.29-.32,.75-.41,1.14-.23s.61,.6,.54,1.02l-.05,.34s.04,.03,.06,.05c.28,.28,.36,.69,.22,1.05l-.29,.72c-.12,.29-.36,.5-.66,.58l-.33,.08c.03,.1,.05,.2,.05,.3h2.53l.88-.76c.33-.29,.81-.32,1.18-.08,.37,.24,.52,.7,.38,1.12l-.22,.66c.06,.53,.19,1.31,.34,1.68,.13,.31,.29,.6,.41,.8,.7,.17,2.24,.55,3.21,.76,.89,.2,2.27,.33,2.93,.38l.56-.47c.34-.28,.83-.3,1.19-.04,.36,.26,.5,.72,.35,1.14l-.43,1.15c-.03,.09-.08,.17-.13,.24l-.03,.04c.17,.41,.05,.89-.31,1.16l-.58,.43c-.16,.12-.34,.18-.54,.19l-2.1,.1v16.81c0,.54-.44,.97-.97,.97Zm-46.72-1.95H51.88V22.73c0-.52,.41-.95,.93-.97l2.39-.11v-.03c-.77-.07-1.88-.2-2.7-.38-1.31-.29-3.63-.87-3.63-.87-.22-.05-.41-.18-.54-.36-.05-.07-.52-.7-.85-1.51-.16-.39-.28-.93-.36-1.4h-5.06c-.41,0-.77-.26-.91-.64-.14-.38-.02-.82,.29-1.08l.7-.59v-.67c0-.1,.01-.19,.04-.28-1.04-.04-2.58-.15-3.68-.44-1.55-.4-3.41-1.35-5.38-2.35l-.93-.47c-1.58-.8-2.94-1.72-3.68-2.26-.74,.54-2.1,1.46-3.68,2.26l-.93,.47c-1.97,1-3.82,1.95-5.38,2.35-1.1,.28-2.64,.39-3.68,.44,.03,.09,.04,.18,.04,.28v.49l.92,.77c.31,.26,.43,.69,.29,1.08-.14,.38-.51,.64-.91,.64h-4.3c-.08,.47-.2,1-.36,1.4-.33,.81-.79,1.44-.85,1.51-.13,.18-.33,.3-.54,.36,0,0-2.32,.58-3.63,.87-.82,.18-1.93,.31-2.7,.38v.03l2.39,.11c.52,.02,.93,.45,.93,.97v16.76Z"/><path class="d" d="M36.75,11.76h-.01c-.54,0-.97-.45-.96-.98l.04-3.74c0-.34,.18-.64,.45-.81-.04-.12-.06-.25-.05-.38l.08-1.04c-.29-.17-.48-.48-.48-.84-.09,0-.17-.01-.25-.03-.08,.02-.17,.03-.25,.03h-12.61c-.09,0-.17-.01-.25-.03-.08,.02-.17,.03-.25,.03,0,.36-.19,.67-.48,.84l.08,1.04c0,.13,0,.26-.05,.38,.27,.17,.44,.47,.45,.81l.04,3.74c0,.54-.43,.98-.96,.98h-.01c-.53,0-.97-.43-.97-.96l-.03-2.84-1.23-.08c-.28-.02-.54-.16-.71-.39l-.43-.58c-.25-.33-.26-.78-.03-1.12,.11-.17,.27-.29,.45-.37v-.02c-.11-.43,.08-.87,.47-1.09,.31-.17,.68-.16,.97,.01l-.02-.29c-.02-.27,.07-.54,.26-.73,.08-.09,.18-.16,.28-.21v-.1c0-.29,.12-.54,.32-.72-.2-.18-.32-.44-.32-.72V.97c0-.29,.13-.57,.36-.76,.23-.19,.53-.26,.82-.19l.6,.13c.12-.05,.25-.08,.38-.08h.58c.54,0,.97,.44,.97,.97,0,.43-.23,.74-.44,.97h10.97c-.21-.23-.44-.54-.44-.97,0-.54,.44-.97,.97-.97h.58c.14,0,.27,.03,.38,.08l.6-.13c.28-.06,.59,0,.82,.19,.23,.18,.36,.46,.36,.76v.58c0,.29-.12,.54-.32,.72,.2,.18,.32,.44,.32,.72v.1c.11,.05,.2,.12,.28,.21,.18,.2,.28,.46,.26,.73l-.02,.29c.29-.17,.66-.18,.97-.01,.38,.21,.58,.66,.47,1.09v.02c.17,.07,.33,.2,.44,.37,.23,.34,.21,.79-.03,1.12l-.43,.58c-.17,.23-.43,.37-.71,.39l-1.23,.08-.03,2.84c0,.53-.44,.96-.97,.96Z"/><path class="d" d="M28.03,27.82h-2.92c-.27,0-.49-.22-.49-.49v-4.87c0-.27,.22-.49,.49-.49h2.92c.27,0,.49,.22,.49,.49v4.87c0,.27-.22,.49-.49,.49Zm-2.43-.97h1.95v-3.89h-1.95v3.89Z"/><path class="d" d="M32.89,27.82h-2.92c-.27,0-.49-.22-.49-.49v-4.87c0-.27,.22-.49,.49-.49h2.92c.27,0,.49,.22,.49,.49v4.87c0,.27-.22,.49-.49,.49Zm-2.43-.97h1.95v-3.89h-1.95v3.89Z"/><path class="d" d="M22.19,27.82H7.58c-.27,0-.49-.22-.49-.49s.22-.49,.49-.49h14.11v-3.89H11.48c-.27,0-.49-.22-.49-.49s.22-.49,.49-.49h10.71c.27,0,.49,.22,.49,.49v4.87c0,.27-.22,.49-.49,.49Z"/><path class="d" d="M50.42,27.82h-14.6c-.27,0-.49-.22-.49-.49v-4.87c0-.27,.22-.49,.49-.49h10.71c.27,0,.49,.22,.49,.49s-.22,.49-.49,.49h-10.22v3.89h14.11c.27,0,.49,.22,.49,.49s-.22,.49-.49,.49Z"/><path class="d" d="M43.6,19.06H15.37c-.27,0-.49-.22-.49-.49s.22-.49,.49-.49h28.23c.27,0,.49,.22,.49,.49s-.22,.49-.49,.49Z"/></g></g></g></svg>