<?xml version="1.0" encoding="UTF-8"?><svg xmlns="http://www.w3.org/2000/svg" viewBox="0 0 59.41 46.85"><defs><style>.d{fill:#fff;stroke:#fff;stroke-miterlimit:10;stroke-width:.5px;}</style></defs><g id="a"/><g id="b"><g id="c"><g><g><path class="d" d="M28.56,14.01l3.11,2.41S10.44,45.58,9.97,45.58l-7.33-.02c-.77,0-1.39-.79-1.39-1.76v-1.92c0-1.19,.78-2.16,1.73-2.15l3.7,.02L26.05,14.25c.67-.63,1.87-.87,2.51-.24Z"/><path class="d" d="M9.99,46.58h-.02l-7.33-.02c-1.32,0-2.39-1.24-2.39-2.76v-1.92c0-.8,.27-1.56,.73-2.15,.51-.64,1.24-1,1.99-1h3.21L25.36,13.52c1.01-.95,2.78-1.27,3.85-.27l3.84,2.97-.57,.78C11.13,46.33,10.66,46.58,9.99,46.58Zm-7.02-5.86c-.2,0-.35,.16-.43,.25-.18,.23-.29,.56-.29,.9v1.92c0,.47,.25,.76,.39,.76l6.92,.02c1.87-2.2,13.01-17.36,20.73-27.96l-2.44-1.9c-.16-.16-.72-.07-1.07,.21L7.17,40.74l-4.2-.02h0Z"/></g><path class="d" d="M38.76,16.25h-.01l-5.44-.02c-1.14,0-2.21-.45-3.02-1.26-.8-.81-1.25-1.88-1.24-3.02l.02-7.44c0-1.14,.45-2.21,1.26-3.02,.81-.8,1.87-1.24,3.01-1.24h.01l5.44,.02c1.14,0,2.21,.45,3.02,1.26,.8,.81,1.25,1.88,1.24,3.02l-.02,7.44c0,1.14-.45,2.21-1.26,3.02-.81,.8-1.87,1.24-3.01,1.24Zm-5.44-2.02l5.44,.02h0c.6,0,1.17-.23,1.6-.66,.43-.43,.67-1,.67-1.6l.02-7.44c0-.61-.23-1.18-.66-1.61-.43-.43-1-.67-1.6-.67l-5.44-.02c-.58,.02-1.18,.23-1.61,.66-.43,.43-.67,1-.67,1.6l-.02,7.44c0,.61,.23,1.18,.66,1.61,.43,.43,1,.67,1.6,.67h0Z"/><g><ellipse class="d" cx="35.77" cy="42.97" rx="2.63" ry="6.56" transform="translate(-7.31 78.61) rotate(-89.83)"/><path class="d" d="M35.81,46.6h-.05c-1.88,0-3.66-.31-5.01-.86-2.22-.9-2.54-2.13-2.54-2.79s.34-1.9,2.56-2.78c1.36-.54,3.14-.79,5.02-.83,3.76,.01,7.56,1.27,7.55,3.65,0,2.37-3.78,3.6-7.52,3.6Zm-.08-5.25c-1.59,0-3.13,.25-4.23,.68-.97,.38-1.3,.8-1.3,.92h0c0,.13,.32,.54,1.29,.93,1.11,.45,2.66,.71,4.27,.71h.05c3.62,0,5.52-1.19,5.52-1.61,0-.42-1.91-1.63-5.56-1.64h-.04Z"/></g><g><rect class="d" x="34.5" y="16.21" width="2.33" height="28.59" transform="translate(71.24 61.12) rotate(-179.83)"/><path class="d" d="M37.79,45.81h-4.33l.09-30.6h4.33l-.09,30.6Zm-2.33-2.01h.33l.08-26.59h-.33l-.08,26.59Z"/></g><path class="d" d="M53.48,39.73c-.28,0-.56-.04-.83-.12-.75-.22-1.37-.72-1.74-1.41l-10.41-19.15c-.37-.69-.46-1.48-.23-2.23s.72-1.37,1.41-1.74l2.76-1.5c.69-.37,1.48-.46,2.23-.24,.75,.22,1.37,.72,1.74,1.41l10.41,19.15c.37,.69,.46,1.48,.24,2.23-.22,.75-.72,1.37-1.41,1.74l-2.76,1.5c-.43,.24-.91,.36-1.39,.36Zm-11.23-21.64l10.41,19.15c.12,.22,.31,.38,.55,.45,.24,.07,.49,.04,.71-.07l2.76-1.5c.22-.12,.38-.31,.45-.55,.07-.24,.04-.49-.07-.7l-10.41-19.15c-.12-.22-.31-.38-.55-.45-.24-.07-.49-.04-.71,.07l-2.76,1.5c-.22,.12-.38,.31-.45,.55-.07,.24-.04,.49,.07,.71h0Z"/><rect class="d" x="45.35" y="22.54" width="6.49" height="2" transform="translate(-5.34 26.07) rotate(-28.53)"/><rect class="d" x="48.32" y="29.83" width="6.49" height="2" transform="translate(-8.46 28.37) rotate(-28.53)"/><polygon class="d" points="54.17 45.73 38.55 17.27 27.56 17.23 27.56 15.23 39.74 15.27 55.92 44.77 54.17 45.73"/><rect class="d" x="33.05" y="1.25" width="2" height="12.96"/><rect class="d" x="37.05" y="1.25" width="2" height="12.96"/></g></g></g></svg>