<?xml version="1.0" encoding="UTF-8"?><svg xmlns="http://www.w3.org/2000/svg" viewBox="0 0 58.13 47"><defs><style>.d{fill:#1f2c5c;}</style></defs><g id="a"/><g id="b"><g id="c"><g><path class="d" d="M12.64,36.65c-1.8,0-3.47-.1-4.33-.16-.05,0-.11-.01-.16-.02l-3.09-.73c-.48-.11-.8-.55-.77-1.04,.03-.49,.41-.88,.89-.93l1.61-.17c-.02-.13,0-.27,.04-.41,.12-.38,.45-.66,.85-.7l.2-.02c-.06-.27,0-.56,.17-.8,.24-.33,.65-.47,1.05-.38,.03,0,3.11,.77,5.29,.3,2.18-.46,2.84-1.01,3.21-2.67,.36-1.6-1.38-3.93-3.26-5.53-2.02-1.73-8.32-7.7-9.8-9.35-.49-.54-5.77-7.78-4.29-9.86C1.28,2.75,8.25,0,10.76,0c.06,0,.12,0,.17,0,2.73,.16,7.67,1.7,10.17,2.76,.79,.33,2.78,.9,5.09,1.56,4.54,1.29,10.18,2.9,12.8,4.39,4.12,2.35,8.84,7.42,9.67,9.77,.74,2.09,2.58,8.07,2.66,8.33l-1.91,.59c-.02-.06-1.91-6.19-2.64-8.25-.61-1.74-4.97-6.53-8.78-8.7-2.41-1.37-8.16-3.01-12.36-4.21-2.46-.7-4.41-1.26-5.31-1.64-2.32-.98-7.04-2.46-9.51-2.61-1.84-.11-7.81,2.35-8.85,3.27,.04,1.21,2.67,5.89,4.07,7.44,1.41,1.57,7.68,7.51,9.61,9.16,1.1,.94,4.64,4.26,3.91,7.49-.62,2.78-2.28,3.67-4.75,4.19-1.44,.31-3.11,.19-4.36,.02-.02,.06-.04,.12-.07,.18-.11,.23-.31,.4-.54,.49,.02,.11,.01,.22,0,.33,3.63,.17,7.45,.01,8.12-.55,.59-.5,1.21-.87,1.8-1.22,1.04-.62,1.94-1.16,2.53-2.32,.55-1.09,.63-2.62,.61-3.69-.05-.55-.08-1.01-.09-1.33-.03-.53,.38-.99,.91-1.04,.53-.05,1.01,.33,1.08,.86,0,.06,.08,.58,.1,1.33,.26,2.61,.93,5.3,1.67,5.64,1.06,.49,1.43,.39,1.43,.38,0,0-.12,.04-.24,.23l1.7,1.05c-.21,.34-1.09,1.35-3.73,.15-.81-.37-1.4-1.27-1.82-2.38-.85,1.47-2.05,2.19-3.12,2.83-.55,.33-1.06,.64-1.53,1.03-1.04,.88-3.97,1.1-6.62,1.1Z"/><path class="d" d="M36.82,39.69c-1.19,0-2.14-.17-2.92-.31-.52-.09-.96-.17-1.3-.16-.92,.05-1.83-.34-2.61-1.07-1.1-1.05-1.79-2.68-1.79-4.25,0-2.12,2.33-3.99,6.92-5.56,2.25-.77,10.66-2.15,11.02-2.21l.32,1.97c-.09,.01-8.6,1.42-10.69,2.13-4.11,1.41-5.57,2.82-5.57,3.67,0,1.03,.46,2.13,1.17,2.8,.38,.36,.78,.53,1.13,.53,.54-.03,1.1,.07,1.75,.18,1.68,.3,3.98,.71,8.04-.92l7.66-3.55,.84,1.81-7.71,3.57c-2.65,1.06-4.67,1.36-6.26,1.36Z"/><path class="d" d="M37.33,47c-.22,0-.44-.07-.62-.21-.35-.28-.48-.76-.31-1.17l.78-1.88-3.32,2.11c-.43,.27-1,.18-1.31-.22-.32-.4-.29-.97,.07-1.33l3.22-3.25-1.19,.31c-.43,.11-.89-.08-1.12-.46-.23-.39-.17-.88,.14-1.2l1.18-1.23,.63,.6,3.37-.88c.44-.11,.89,.08,1.12,.47s.16,.88-.16,1.2l-.34,.34c.18,.03,.35,.1,.5,.22,.33,.28,.45,.75,.28,1.15l-.61,1.48c2.94-2.16,7.26-5.31,8.91-6.35,1.87-1.19,5.52-4.66,7.11-6.2-.55-.44-1.33-1.01-2.18-1.41-1.17-.55-3.37-.14-4.12,.06l-.53-1.93c.35-.1,3.46-.91,5.51,.06,1.91,.9,3.44,2.4,3.51,2.47,.19,.19,.3,.44,.3,.71s-.11,.52-.3,.71c-.23,.23-5.62,5.56-8.21,7.21-2.47,1.58-11.61,8.35-11.7,8.42-.18,.13-.39,.2-.6,.2Z"/><path class="d" d="M55.27,26h-4.94v-2h3.45c.21-.93,.28-1.85,.13-2.1-.94-.59-5.12-2.86-5.16-2.88l.96-1.76c.17,.09,4.29,2.33,5.35,3.02,1.52,.98,.82,3.84,.45,5.03l-.22,.7Z"/><path class="d" d="M11.33,9c-1.1,0-2-.9-2-2s.9-2,2-2,2,.9,2,2-.9,2-2,2Zm0-2h0Z"/><path class="d" d="M12.91,15.72c-.52,0-1.74-.09-3.84-.75-2.73-.86-4.61-2.23-4.69-2.29l1.18-1.62s1.72,1.24,4.11,1.99c2.29,.72,3.3,.66,3.31,.66l.2,1.99s-.12,.01-.28,.01Z"/></g></g></g></svg>