<?xml version="1.0" encoding="utf-8"?>
<!-- Generator: Adobe Illustrator 26.1.0, SVG Export Plug-In . SVG Version: 6.00 Build 0)  -->
<svg version="1.1" id="レイヤー_1" xmlns="http://www.w3.org/2000/svg" xmlns:xlink="http://www.w3.org/1999/xlink" x="0px"
	 y="0px" viewBox="0 0 56 42.2" style="enable-background:new 0 0 56 42.2;" xml:space="preserve">
<style type="text/css">
	.st0{fill:#F7931E;}
</style>
<g id="a">
</g>
<g id="b">
	<g id="c">
		<path class="st0" d="M45,42.2H34.1v-1c0.1-5.9,0.1-15.1,0.1-15.4c0-2.9-2.3-5.2-5.2-5.2H28c-2.9,0-5.2,2.3-5.2,5.2
			c0,0.3,0,9.7,0.1,15.4v0.9H12.1c-1.3,0-2.3-1.1-2.3-2.5V19.3c0-0.3-0.2-0.6-0.4-0.6h-7c-0.8,0-1.5-0.4-1.9-1.1
			c-0.5-0.8-0.6-1.7-0.2-2.6l5-11.5c1-2.2,3-3.7,5.2-3.7h35c2.2,0,4.2,1.4,5.2,3.7l5,11.5c0.4,0.8,0.3,1.8-0.2,2.6
			c-0.4,0.7-1.1,1.1-1.9,1.1h-5.9c-0.2,0-0.5,0.3-0.5,0.7v20.3C47.2,41,46.2,42.2,45,42.2z M36,40.3h9c0.2,0,0.4-0.2,0.4-0.6V19.4
			c0-1.4,1-2.5,2.3-2.5h5.9c0.2,0,0.3-0.1,0.3-0.2c0.1-0.2,0.2-0.5,0.1-0.8L49,4.4c-0.7-1.6-2-2.5-3.5-2.5h-35C9,1.9,7.6,2.8,7,4.4
			l-5,11.5c-0.1,0.3-0.1,0.6,0.1,0.8c0.1,0.1,0.2,0.2,0.3,0.2h7c1.3,0,2.3,1.1,2.3,2.5v20.3c0,0.4,0.2,0.6,0.4,0.6h9
			c0-5.8-0.1-14.2-0.1-14.5c0-3.9,3.2-7,7.1-7H29c3.9,0,7.1,3.2,7.1,7C36.1,26.1,36,34.4,36,40.3z"/>
	</g>
</g>
</svg>
