<?xml version="1.0" encoding="UTF-8"?><svg xmlns="http://www.w3.org/2000/svg" viewBox="0 0 60.15 44.07"><defs><style>.d{fill:#fbcc00;}</style></defs><g id="a"/><g id="b"><g id="c"><g><path class="d" d="M59.4,44.07H.75c-.28,0-.54-.16-.67-.41-.13-.25-.1-.55,.06-.78L31.36,.31c.15-.2,.38-.33,.63-.31,.25,0,.47,.14,.61,.34l27.43,42.57c.15,.23,.16,.52,.03,.77-.13,.24-.38,.39-.66,.39Zm-57.17-1.5H58.02L31.93,2.07,2.23,42.57Z"/><path class="d" d="M41.15,42.32h-1.5v-13.25H20.15v13.25h-1.5v-14c0-.41,.34-.75,.75-.75h21c.41,0,.75,.34,.75,.75v14Z"/></g></g></g></svg>