<?xml version="1.0" encoding="utf-8"?>
<!-- Generator: Adobe Illustrator 26.1.0, SVG Export Plug-In . SVG Version: 6.00 Build 0)  -->
<svg version="1.1" id="レイヤー_1" xmlns="http://www.w3.org/2000/svg" xmlns:xlink="http://www.w3.org/1999/xlink" x="0px"
	 y="0px" viewBox="0 0 60 43.7" style="enable-background:new 0 0 60 43.7;" xml:space="preserve">
<style type="text/css">
	.st0{fill:#F7931E;}
	.st1{fill-rule:evenodd;clip-rule:evenodd;fill:#F7931E;}
</style>
<g id="a">
</g>
<g id="b">
	<g id="c">
		<g>
			<path class="st0" d="M30,39.7H0V23.2l0.1-0.2c0.1-0.4,3.4-9.6,9.9-14.2c4.8-3.4,10.5-5,13.2-5.8C23.5,3,23.8,2.9,24,2.9v-2
				l0.8-0.2C24.9,0.7,26.6,0,30,0s5.1,0.7,5.2,0.7L36,0.9v2c0.2,0.1,0.5,0.2,0.8,0.2c2.7,0.8,8.4,2.4,13.2,5.8
				c6.5,4.6,9.8,13.8,9.9,14.2l0,0.2v16.5L30,39.7L30,39.7z M30,37.7h28V23.5c-0.4-1.2-3.5-9.2-9.1-13.2c-4.5-3.2-10-4.8-12.7-5.6
				C34.6,4.2,34,4.1,34,3.2V2.2c-1-0.2-1.9-0.5-4-0.5l0,0c-2.1,0-3,0.3-4,0.5v1.1c0,0.8-0.6,1-2.2,1.5c-2.6,0.8-8.1,2.3-12.6,5.6
				c-5.6,3.9-8.6,12-9.1,13.2v14.2L30,37.7L30,37.7z"/>
			<g>
				<path class="st1" d="M58,21.3c0,0-12.7-2-27.3-1.8C13.7,19.7,1,22.1,1,22.1v3.2c0,0,15.8-2.8,29.7-2.8s27.3,2,27.3,2V21.3z"/>
				<path class="st0" d="M1.1,25.4C1.1,25.4,1.1,25.4,1.1,25.4C1,25.3,1,25.3,1,25.3v-3.2C1,22,1,22,1.1,22c0.1,0,12.8-2.4,29.6-2.6
					c14.4-0.2,27.1,1.8,27.2,1.8c0,0,0.1,0,0.1,0.1v3.1c0,0,0,0.1,0,0.1c0,0,0,0-0.1,0c-0.1,0-13.6-2-27.2-2S1.3,25.3,1.1,25.4
					L1.1,25.4z"/>
			</g>
			<g>
				<rect x="40.5" y="23.2" class="st0" width="3" height="20"/>
				<path class="st0" d="M43.5,43.7h-3c-0.3,0-0.5-0.2-0.5-0.5v-20c0-0.3,0.2-0.5,0.5-0.5h3c0.3,0,0.5,0.2,0.5,0.5v20
					C44,43.5,43.8,43.7,43.5,43.7z M41,42.7h2v-19h-2V42.7z"/>
			</g>
			<g>
				<rect x="16.5" y="23.2" class="st0" width="3" height="20"/>
				<path class="st0" d="M19.5,43.7h-3c-0.3,0-0.5-0.2-0.5-0.5v-20c0-0.3,0.2-0.5,0.5-0.5h3c0.3,0,0.5,0.2,0.5,0.5v20
					C20,43.5,19.8,43.7,19.5,43.7z M17,42.7h2v-19h-2V42.7z"/>
			</g>
			<path class="st0" d="M51.1,15.2c-0.1,0-11.3-2.8-21.1-2.8S9.2,15.2,9.1,15.2l-0.2-1c0.1,0,11.2-2.8,21.1-2.8s21.3,2.8,21.4,2.8
				L51.1,15.2L51.1,15.2z"/>
			<path class="st0" d="M52.9,19.2c-0.1,0-12.3-2.8-23-2.8S7.2,19.2,7.1,19.2l-0.2-1c0.1,0,12.2-2.8,23-2.8s23.1,2.8,23.2,2.8
				L52.9,19.2L52.9,19.2z"/>
		</g>
	</g>
</g>
</svg>
