<?xml version="1.0" encoding="utf-8"?>
<!-- Generator: Adobe Illustrator 26.1.0, SVG Export Plug-In . SVG Version: 6.00 Build 0)  -->
<svg version="1.1" id="レイヤー_1" xmlns="http://www.w3.org/2000/svg" xmlns:xlink="http://www.w3.org/1999/xlink" x="0px"
	 y="0px" viewBox="0 0 32.5 49" style="enable-background:new 0 0 32.5 49;" xml:space="preserve">
<style type="text/css">
	.st0{fill:#F7931E;}
</style>
<g id="a">
</g>
<g id="b">
	<g id="c">
		<g>
			<path class="st0" d="M28.5,48.9H3.3c-1.1,0-2.1-0.5-2.7-1.4s-0.8-2-0.5-3l3.3-10c0.5-1.5,1.8-2.4,3.4-2.4h18.9
				c1.5,0,2.9,1,3.4,2.5l3,9.1c0.4,1.2,0.2,2.5-0.5,3.6S29.8,48.9,28.5,48.9z M6.9,34.2c-0.7,0-1.3,0.4-1.5,1.1l-3.3,10
				C1.9,45.6,2,46,2.3,46.4s0.6,0.5,1.1,0.5h25.2c0.6,0,1.2-0.3,1.6-0.8c0.4-0.5,0.5-1.2,0.3-1.8l-3-9.1c-0.2-0.7-0.8-1.1-1.5-1.1
				C25.8,34.2,6.9,34.2,6.9,34.2z"/>
			<path class="st0" d="M16.2,0C8.4,0,2,6.4,2,14.3c0,6.1,3.9,11.6,9.8,13.5c0.9,0.3,1.4,2.1,2.5,6.4c0.6,2.2,1.5,5.9,2.1,6.2
				c0.7,0,2-4.4,2.6-6.5c1.1-3.7,1.9-6,2.9-6.4c5.3-2.2,8.7-7.4,8.7-13.1C30.5,6.4,24.1,0,16.2,0z M16.2,17.4
				c-1.6,0-2.9-1.3-2.9-2.9s1.3-2.9,2.9-2.9s3,1.3,3,2.9S17.8,17.4,16.2,17.4z"/>
		</g>
	</g>
</g>
</svg>
