<?xml version="1.0" encoding="utf-8"?>
<!-- Generator: Adobe Illustrator 26.1.0, SVG Export Plug-In . SVG Version: 6.00 Build 0)  -->
<svg version="1.1" id="レイヤー_1" xmlns="http://www.w3.org/2000/svg" xmlns:xlink="http://www.w3.org/1999/xlink" x="0px"
	 y="0px" viewBox="0 0 48.4 48.4" style="enable-background:new 0 0 48.4 48.4;" xml:space="preserve">
<style type="text/css">
	.st0{fill:#F7931E;}
</style>
<g id="a">
</g>
<g id="b">
	<g id="c">
		<g>
			<g>
				<path class="st0" d="M24,12.4V0.8c-4.2,0-8.2,1.1-11.6,3.1l5.8,10.1C19.9,13,21.9,12.4,24,12.4L24,12.4z"/>
				<path class="st0" d="M23,1.7v9.7c-1.5,0.1-3.1,0.5-4.5,1.2l-4.9-8.4C16.6,2.7,19.8,1.9,23,1.7 M24,0.8c-4.2,0-8.2,1.1-11.6,3.1
					l5.8,10.1c1.7-1,3.7-1.6,5.8-1.6L24,0.8L24,0.8L24,0.8z"/>
			</g>
			<path class="st0" d="M12,5.2l4.9,8.4c-1.3,0.9-2.4,2-3.3,3.3L5.2,12C7,9.3,9.3,7,12,5.2 M12.4,3.9c-3.5,2-6.5,5-8.5,8.5l10.1,5.8
				c1-1.8,2.5-3.2,4.2-4.2L12.4,3.9L12.4,3.9L12.4,3.9z"/>
			<g>
				<path class="st0" d="M34.1,18.2l10.1-5.8c-2-3.5-5-6.5-8.5-8.5l-5.8,10.1C31.6,15,33,16.4,34.1,18.2L34.1,18.2z"/>
				<path class="st0" d="M36,5.2C38.7,7,41,9.3,42.8,12l-8.4,4.9c-0.9-1.3-2-2.4-3.3-3.3L36,5.2 M35.6,3.9l-5.8,10.1
					c1.8,1,3.2,2.5,4.2,4.2l10.1-5.8C42.1,8.8,39.2,5.9,35.6,3.9L35.6,3.9L35.6,3.9z"/>
			</g>
			<path class="st0" d="M43.8,13.7c1.5,2.9,2.4,6.1,2.5,9.3h-9.7c-0.1-1.5-0.5-3.1-1.2-4.5L43.8,13.7 M44.1,12.4l-10.1,5.8
				c1,1.7,1.6,3.7,1.6,5.8h11.6C47.3,19.8,46.1,15.8,44.1,12.4L44.1,12.4L44.1,12.4z"/>
			<path class="st0" d="M25,1.7c3.2,0.1,6.4,1,9.3,2.5l-4.9,8.4C28,12,26.5,11.6,25,11.5L25,1.7 M24,0.8v11.6c2.1,0,4.1,0.6,5.8,1.6
				l5.8-10.1C32.2,1.9,28.2,0.8,24,0.8L24,0.8L24,0.8z"/>
			<g>
				<path class="st0" d="M13.9,18.2L3.9,12.4c-2,3.4-3.1,7.4-3.1,11.6h11.6C12.4,21.9,13,19.9,13.9,18.2L13.9,18.2z"/>
				<path class="st0" d="M4.2,13.7l8.4,4.9C12,20,11.6,21.5,11.5,23H1.8C1.9,19.8,2.8,16.6,4.2,13.7 M3.9,12.4
					c-2,3.4-3.1,7.4-3.1,11.6h11.6c0-2.1,0.6-4.1,1.6-5.8L3.9,12.4L3.9,12.4L3.9,12.4z"/>
			</g>
			<path class="st0" d="M34.4,31.1l8.4,4.9C41,38.7,38.7,41,36,42.8l-4.9-8.4C32.4,33.5,33.5,32.4,34.4,31.1 M34.1,29.8
				c-1,1.8-2.5,3.2-4.2,4.2l5.8,10.1c3.5-2,6.5-5,8.5-8.5L34.1,29.8L34.1,29.8L34.1,29.8z"/>
			<g>
				<path class="st0" d="M24,35.6v11.6c4.2,0,8.2-1.1,11.6-3.1l-5.8-10.1C28.1,35,26.1,35.6,24,35.6L24,35.6z"/>
				<path class="st0" d="M29.5,35.4l4.9,8.4c-2.9,1.5-6.1,2.4-9.3,2.5v-9.7C26.5,36.4,28.1,36,29.5,35.4 M29.8,34.1
					c-1.7,1-3.7,1.6-5.8,1.6v11.6c4.2,0,8.2-1.1,11.6-3.1L29.8,34.1L29.8,34.1L29.8,34.1z"/>
			</g>
			<path class="st0" d="M11.5,25c0.1,1.5,0.5,3.1,1.2,4.5l-8.4,4.9c-1.5-2.9-2.4-6.1-2.5-9.3L11.5,25 M12.4,24H0.8
				c0,4.2,1.1,8.2,3.1,11.6l10.1-5.8C13,28.1,12.4,26.1,12.4,24L12.4,24L12.4,24z"/>
			<g>
				<path class="st0" d="M35.6,24c0,2.1-0.6,4.1-1.6,5.8l10.1,5.8c2-3.4,3.1-7.4,3.1-11.6L35.6,24L35.6,24z"/>
				<path class="st0" d="M46.3,25c-0.1,3.2-1,6.4-2.5,9.3l-8.4-4.9c0.7-1.4,1.1-2.9,1.2-4.5L46.3,25 M47.3,24H35.6
					c0,2.1-0.6,4.1-1.6,5.8l10.1,5.8C46.1,32.2,47.3,28.2,47.3,24L47.3,24L47.3,24z"/>
			</g>
			<g>
				<path class="st0" d="M13.9,29.8L3.9,35.6c2,3.5,5,6.5,8.5,8.5l5.8-10.1C16.5,33.1,15,31.6,13.9,29.8L13.9,29.8z"/>
				<path class="st0" d="M13.6,31.1c0.9,1.3,2,2.4,3.3,3.3L12,42.8C9.3,41,7,38.7,5.2,36L13.6,31.1 M13.9,29.8L3.9,35.6
					c2,3.5,5,6.5,8.5,8.5l5.8-10.1C16.4,33.1,15,31.6,13.9,29.8L13.9,29.8L13.9,29.8z"/>
			</g>
			<path class="st0" d="M18.6,35.4c1.4,0.7,2.9,1.1,4.5,1.2v9.7c-3.2-0.1-6.4-1-9.3-2.5L18.6,35.4 M18.2,34.1l-5.8,10.1
				c3.4,2,7.4,3.1,11.6,3.1V35.6C21.9,35.6,19.9,35.1,18.2,34.1L18.2,34.1L18.2,34.1z"/>
			<path class="st0" d="M24.2,48.4C10.9,48.4,0,37.6,0,24.2S10.9,0,24.2,0s24.2,10.9,24.2,24.2S37.6,48.4,24.2,48.4z M24.2,1.9
				c-12.3,0-22.3,10-22.3,22.3s10,22.3,22.3,22.3s22.3-10,22.3-22.3S36.5,1.9,24.2,1.9z"/>
		</g>
	</g>
</g>
</svg>
