<?xml version="1.0" encoding="utf-8"?>
<!-- Generator: Adobe Illustrator 26.1.0, SVG Export Plug-In . SVG Version: 6.00 Build 0)  -->
<svg version="1.1" id="レイヤー_1" xmlns="http://www.w3.org/2000/svg" xmlns:xlink="http://www.w3.org/1999/xlink" x="0px"
	 y="0px" viewBox="0 0 58.9 46.3" style="enable-background:new 0 0 58.9 46.3;" xml:space="preserve">
<style type="text/css">
	.st0{fill:#F7931E;}
</style>
<g id="a">
</g>
<g id="b">
	<g id="c">
		<g>
			<g>
				<path class="st0" d="M28.3,13.8l3.1,2.4c0,0-21.2,29.2-21.7,29.2l-7.3,0c-0.8,0-1.4-0.8-1.4-1.8v-1.9c0-1.2,0.8-2.2,1.7-2.2
					l3.7,0L25.8,14C26.5,13.4,27.7,13.1,28.3,13.8z"/>
				<path class="st0" d="M9.7,46.3L9.7,46.3l-7.4,0c-1.3,0-2.4-1.2-2.4-2.8v-1.9c0-0.8,0.3-1.6,0.7-2.2c0.5-0.6,1.2-1,2-1h3.2
					l19.2-25.2c1-0.9,2.8-1.3,3.9-0.3l3.8,3l-0.6,0.8C10.9,46.1,10.4,46.3,9.7,46.3z M2.7,40.5c-0.2,0-0.3,0.2-0.4,0.2
					C2.1,40.9,2,41.3,2,41.6v1.9c0,0.5,0.2,0.8,0.4,0.8l6.9,0c1.9-2.2,13-17.4,20.7-28l-2.4-1.9c-0.2-0.2-0.7-0.1-1.1,0.2L6.9,40.5
					L2.7,40.5C2.7,40.5,2.7,40.5,2.7,40.5z"/>
			</g>
			<path class="st0" d="M38.5,16L38.5,16l-5.4,0c-1.1,0-2.2-0.4-3-1.3c-0.8-0.8-1.2-1.9-1.2-3l0-7.4c0-1.1,0.5-2.2,1.3-3
				C30.9,0.4,32,0,33.1,0h0l5.4,0c1.1,0,2.2,0.4,3,1.3c0.8,0.8,1.2,1.9,1.2,3l0,7.4c0,1.1-0.5,2.2-1.3,3C40.7,15.6,39.7,16,38.5,16z
				 M33.1,14l5.4,0l0,0c0.6,0,1.2-0.2,1.6-0.7s0.7-1,0.7-1.6l0-7.4c0-0.6-0.2-1.2-0.7-1.6S39.1,2,38.5,2l-5.4,0
				c-0.6,0-1.2,0.2-1.6,0.7s-0.7,1-0.7,1.6l0,7.4c0,0.6,0.2,1.2,0.7,1.6C31.9,13.7,32.5,14,33.1,14L33.1,14L33.1,14z"/>
			<g>
				
					<ellipse transform="matrix(2.967024e-03 -1 1 2.967024e-03 -7.3069 78.1052)" class="st0" cx="35.5" cy="42.7" rx="2.6" ry="6.6"/>
				<path class="st0" d="M35.6,46.3L35.6,46.3c-1.9,0-3.7-0.3-5.1-0.9c-2.2-0.9-2.5-2.1-2.5-2.8s0.3-1.9,2.6-2.8
					c1.4-0.5,3.1-0.8,5-0.8c3.8,0,7.6,1.3,7.5,3.7C43.1,45.1,39.3,46.3,35.6,46.3L35.6,46.3z M35.5,41.1c-1.6,0-3.1,0.2-4.2,0.7
					c-1,0.4-1.3,0.8-1.3,0.9l0,0c0,0.1,0.3,0.5,1.3,0.9c1.1,0.5,2.7,0.7,4.3,0.7h0c3.6,0,5.5-1.2,5.5-1.6
					C41.1,42.3,39.2,41.1,35.5,41.1L35.5,41.1L35.5,41.1z"/>
			</g>
			<g>
				
					<rect x="21.1" y="29.1" transform="matrix(2.967010e-03 -1 1 2.967010e-03 5.0499 65.5847)" class="st0" width="28.6" height="2.3"/>
				<path class="st0" d="M37.5,45.6h-4.3L33.3,15h4.3C37.6,15,37.5,45.6,37.5,45.6z M35.2,43.5h0.3L35.6,17h-0.3L35.2,43.5z"/>
			</g>
			<path class="st0" d="M53.2,39.5c-0.3,0-0.6,0-0.8-0.1c-0.8-0.2-1.4-0.7-1.7-1.4L40.2,18.8c-0.4-0.7-0.5-1.5-0.2-2.2
				c0.2-0.7,0.7-1.4,1.4-1.7l2.8-1.5c0.7-0.4,1.5-0.5,2.2-0.2s1.4,0.7,1.7,1.4l10.4,19.1c0.4,0.7,0.5,1.5,0.2,2.2
				c-0.2,0.8-0.7,1.4-1.4,1.7l-2.8,1.5C54.2,39.4,53.7,39.5,53.2,39.5L53.2,39.5z M42,17.8L52.4,37c0.1,0.2,0.3,0.4,0.5,0.5
				c0.2,0.1,0.5,0,0.7-0.1l2.8-1.5c0.2-0.1,0.4-0.3,0.5-0.5c0.1-0.2,0-0.5-0.1-0.7L46.4,15.5c-0.1-0.2-0.3-0.4-0.5-0.4
				c-0.2-0.1-0.5,0-0.7,0.1l-2.8,1.5c-0.2,0.1-0.4,0.3-0.5,0.5S41.9,17.6,42,17.8L42,17.8L42,17.8z"/>
			<rect x="45.1" y="22.3" transform="matrix(0.8786 -0.4776 0.4776 0.8786 -5.2533 25.9203)" class="st0" width="6.5" height="2"/>
			<rect x="48.1" y="29.6" transform="matrix(0.8786 -0.4776 0.4776 0.8786 -8.3726 28.2242)" class="st0" width="6.5" height="2"/>
			<polygon class="st0" points="53.9,45.5 38.3,17 27.3,17 27.3,15 39.5,15 55.7,44.5 			"/>
			<rect x="32.8" y="1" class="st0" width="2" height="13"/>
			<rect x="36.8" y="1" class="st0" width="2" height="13"/>
		</g>
	</g>
</g>
</svg>
