<?xml version="1.0" encoding="UTF-8"?><svg xmlns="http://www.w3.org/2000/svg" viewBox="0 0 58.91 46.35"><defs><style>.d{fill:#1f2c5c;}</style></defs><g id="a"/><g id="b"><g id="c"><g><g><path class="d" d="M28.31,13.76l3.11,2.41S10.19,45.33,9.72,45.33l-7.33-.02c-.77,0-1.39-.79-1.39-1.76v-1.92c0-1.19,.78-2.16,1.73-2.15l3.7,.02L25.8,14c.67-.63,1.87-.87,2.51-.24Z"/><path class="d" d="M9.74,46.33h-.02l-7.33-.02C1.07,46.3,0,45.06,0,43.54v-1.92c0-.8,.27-1.56,.73-2.15,.51-.64,1.24-1,1.99-1h3.21L25.11,13.27c1.01-.95,2.78-1.27,3.85-.27l3.84,2.97-.57,.78C10.88,46.08,10.41,46.33,9.74,46.33Zm-7.02-5.86c-.2,0-.35,.16-.43,.25-.18,.23-.29,.56-.29,.9v1.92c0,.47,.25,.76,.39,.76l6.92,.02c1.87-2.2,13.01-17.36,20.73-27.96l-2.44-1.9c-.16-.16-.72-.07-1.07,.21L6.92,40.49l-4.2-.02h0Z"/></g><path class="d" d="M38.51,16h-.01l-5.44-.02c-1.14,0-2.21-.45-3.02-1.26-.8-.81-1.25-1.88-1.24-3.02l.02-7.44c0-1.14,.45-2.21,1.26-3.02,.81-.8,1.87-1.24,3.01-1.24h.01l5.44,.02c1.14,0,2.21,.45,3.02,1.26,.8,.81,1.25,1.88,1.24,3.02l-.02,7.44c0,1.14-.45,2.21-1.26,3.02-.81,.8-1.87,1.24-3.01,1.24Zm-5.44-2.02l5.44,.02h0c.6,0,1.17-.23,1.6-.66,.43-.43,.67-1,.67-1.6l.02-7.44c0-.61-.23-1.18-.66-1.61-.43-.43-1-.67-1.6-.67l-5.44-.02c-.58,.02-1.18,.23-1.61,.66-.43,.43-.67,1-.67,1.6l-.02,7.44c0,.61,.23,1.18,.66,1.61,.43,.43,1,.67,1.6,.67h0Z"/><g><ellipse class="d" cx="35.52" cy="42.72" rx="2.63" ry="6.56" transform="translate(-7.31 78.11) rotate(-89.83)"/><path class="d" d="M35.56,46.35h-.05c-1.88,0-3.66-.31-5.01-.86-2.22-.9-2.54-2.13-2.54-2.79s.34-1.9,2.56-2.78c1.36-.54,3.14-.79,5.02-.83,3.76,.01,7.56,1.27,7.55,3.65,0,2.37-3.78,3.6-7.52,3.6Zm-.08-5.25c-1.59,0-3.13,.25-4.23,.68-.97,.38-1.3,.8-1.3,.92h0c0,.13,.32,.54,1.29,.93,1.11,.45,2.66,.71,4.27,.71h.05c3.62,0,5.52-1.19,5.52-1.61,0-.42-1.91-1.63-5.56-1.64h-.04Z"/></g><g><rect class="d" x="34.25" y="15.96" width="2.33" height="28.59" transform="translate(70.74 60.62) rotate(-179.83)"/><path class="d" d="M37.54,45.56h-4.33l.09-30.6h4.33l-.09,30.6Zm-2.33-2.01h.33l.08-26.59h-.33l-.08,26.59Z"/></g><path class="d" d="M53.23,39.48c-.28,0-.56-.04-.83-.12-.75-.22-1.37-.72-1.74-1.41l-10.41-19.15c-.37-.69-.46-1.48-.23-2.23s.72-1.37,1.41-1.74l2.76-1.5c.69-.37,1.48-.46,2.23-.24,.75,.22,1.37,.72,1.74,1.41l10.41,19.15c.37,.69,.46,1.48,.24,2.23-.22,.75-.72,1.37-1.41,1.74l-2.76,1.5c-.43,.24-.91,.36-1.39,.36Zm-11.23-21.64l10.41,19.15c.12,.22,.31,.38,.55,.45,.24,.07,.49,.04,.71-.07l2.76-1.5c.22-.12,.38-.31,.45-.55,.07-.24,.04-.49-.07-.7l-10.41-19.15c-.12-.22-.31-.38-.55-.45-.24-.07-.49-.04-.71,.07l-2.76,1.5c-.22,.12-.38,.31-.45,.55-.07,.24-.04,.49,.07,.71h0Z"/><rect class="d" x="45.1" y="22.29" width="6.49" height="2" transform="translate(-5.25 25.92) rotate(-28.53)"/><rect class="d" x="48.07" y="29.58" width="6.49" height="2" transform="translate(-8.37 28.22) rotate(-28.53)"/><polygon class="d" points="53.92 45.48 38.3 17.02 27.31 16.98 27.31 14.98 39.49 15.02 55.67 44.52 53.92 45.48"/><rect class="d" x="32.8" y="1" width="2" height="12.96"/><rect class="d" x="36.8" y="1" width="2" height="12.96"/></g></g></g></svg>