<?xml version="1.0" encoding="UTF-8"?><svg xmlns="http://www.w3.org/2000/svg" viewBox="0 0 48.44 48.44"><defs><style>.d{fill:#1f2c5c;}</style></defs><g id="a"/><g id="b"><g id="c"><g><g><path class="d" d="M24.01,12.39V.76c-4.24,0-8.2,1.14-11.62,3.12l5.82,10.07c1.71-.99,3.69-1.57,5.81-1.57Z"/><path class="d" d="M23.04,1.75V11.45c-1.55,.12-3.06,.53-4.47,1.2L13.72,4.25c2.88-1.5,6.07-2.36,9.32-2.5m.97-.99c-4.24,0-8.2,1.14-11.62,3.12l5.82,10.07c1.71-.99,3.69-1.57,5.81-1.57V.76h0Z"/></g><path class="d" d="M12.04,5.22l4.86,8.41c-1.28,.88-2.39,1.99-3.27,3.27L5.22,12.04c1.75-2.74,4.08-5.07,6.82-6.82m.34-1.34c-3.53,2.04-6.47,4.98-8.51,8.51l10.07,5.82c1.02-1.76,2.49-3.23,4.25-4.25L12.39,3.88h0Z"/><g><path class="d" d="M34.07,18.2l10.07-5.82c-2.04-3.53-4.98-6.47-8.51-8.51l-5.82,10.07c1.76,1.02,3.23,2.49,4.25,4.25Z"/><path class="d" d="M35.98,5.22c2.74,1.75,5.07,4.08,6.82,6.82l-8.41,4.86c-.88-1.28-1.99-2.39-3.27-3.27l4.86-8.41m-.34-1.34l-5.82,10.07c1.76,1.02,3.23,2.49,4.25,4.25l10.07-5.82c-2.04-3.53-4.98-6.47-8.51-8.51h0Z"/></g><path class="d" d="M43.77,13.72c1.5,2.88,2.36,6.07,2.5,9.32h-9.71c-.12-1.55-.53-3.06-1.2-4.47l8.41-4.86m.37-1.33l-10.07,5.82c.99,1.71,1.57,3.69,1.57,5.81h11.62c0-4.24-1.14-8.2-3.12-11.62h0Z"/><path class="d" d="M24.98,1.75c3.25,.14,6.44,1,9.32,2.5l-4.86,8.41c-1.4-.67-2.92-1.08-4.47-1.2V1.75m-.97-.99V12.39c2.12,0,4.1,.58,5.81,1.57l5.82-10.07c-3.42-1.98-7.39-3.12-11.62-3.12h0Z"/><g><path class="d" d="M13.95,18.2L3.88,12.39c-1.98,3.42-3.12,7.39-3.12,11.62H12.39c0-2.12,.58-4.1,1.57-5.81Z"/><path class="d" d="M4.25,13.72l8.41,4.86c-.67,1.4-1.08,2.92-1.2,4.47H1.75c.14-3.25,1-6.44,2.5-9.32m-.37-1.33c-1.98,3.42-3.12,7.39-3.12,11.62H12.39c0-2.12,.58-4.1,1.57-5.81L3.88,12.39h0Z"/></g><path class="d" d="M34.39,31.12l8.41,4.86c-1.75,2.74-4.08,5.07-6.82,6.82l-4.86-8.41c1.28-.88,2.39-1.99,3.27-3.27m-.32-1.3c-1.02,1.76-2.49,3.23-4.25,4.25l5.82,10.07c3.53-2.04,6.47-4.98,8.51-8.51l-10.07-5.82h0Z"/><g><path class="d" d="M24.01,35.63v11.62c4.24,0,8.2-1.14,11.62-3.12l-5.82-10.07c-1.71,.99-3.69,1.57-5.81,1.57Z"/><path class="d" d="M29.45,35.36l4.86,8.41c-2.88,1.5-6.07,2.36-9.32,2.5v-9.71c1.55-.12,3.06-.53,4.47-1.2m.37-1.29c-1.71,.99-3.69,1.57-5.81,1.57v11.62c4.24,0,8.2-1.14,11.62-3.12l-5.82-10.07h0Z"/></g><path class="d" d="M11.46,24.98c.12,1.55,.53,3.06,1.2,4.47l-8.41,4.86c-1.5-2.88-2.36-6.07-2.5-9.32H11.46m.93-.97H.76c0,4.24,1.14,8.2,3.12,11.62l10.07-5.82c-.99-1.71-1.57-3.69-1.57-5.81h0Z"/><g><path class="d" d="M35.63,24.01c0,2.12-.58,4.1-1.57,5.81l10.07,5.82c1.98-3.42,3.12-7.39,3.12-11.62h-11.62Z"/><path class="d" d="M46.27,24.98c-.14,3.25-1,6.44-2.5,9.32l-8.41-4.86c.67-1.4,1.08-2.92,1.2-4.47h9.71m.99-.97h-11.62c0,2.12-.58,4.1-1.57,5.81l10.07,5.82c1.98-3.42,3.12-7.39,3.12-11.62h0Z"/></g><g><path class="d" d="M13.95,29.82l-10.07,5.82c2.04,3.53,4.98,6.47,8.51,8.51l5.82-10.07c-1.76-1.02-3.23-2.49-4.25-4.25Z"/><path class="d" d="M13.63,31.12c.88,1.28,1.99,2.39,3.27,3.27l-4.86,8.41c-2.74-1.75-5.07-4.08-6.82-6.82l8.41-4.86m.32-1.3l-10.07,5.82c2.04,3.53,4.98,6.47,8.51,8.51l5.82-10.07c-1.76-1.02-3.23-2.49-4.25-4.25h0Z"/></g><path class="d" d="M18.57,35.36c1.4,.67,2.92,1.08,4.47,1.2v9.71c-3.25-.14-6.44-1-9.32-2.5l4.86-8.41m-.37-1.29l-5.82,10.07c3.42,1.98,7.39,3.12,11.62,3.12v-11.62c-2.12,0-4.1-.58-5.81-1.57h0Z"/><path class="d" d="M24.22,48.44C10.86,48.44,0,37.57,0,24.22S10.86,0,24.22,0s24.22,10.86,24.22,24.22-10.86,24.22-24.22,24.22ZM24.22,1.94C11.93,1.94,1.94,11.93,1.94,24.22s9.99,22.28,22.28,22.28,22.28-10,22.28-22.28S36.5,1.94,24.22,1.94Z"/></g></g></g></svg>