<?xml version="1.0" encoding="UTF-8"?><svg xmlns="http://www.w3.org/2000/svg" viewBox="0 0 56.78 47"><defs><style>.d{fill:#333;}</style></defs><g id="a"/><g id="b"><g id="c"><g><path class="d" d="M48.93,27.43c-2.94,0-5.5-1.62-6.85-4.02-1.34,2.4-3.91,4.02-6.85,4.02s-5.5-1.62-6.85-4.02c-1.34,2.4-3.91,4.02-6.85,4.02s-5.5-1.62-6.85-4.02c-1.34,2.4-3.91,4.02-6.85,4.02-4.33,0-7.85-3.52-7.85-7.85,0-.2,.06-.4,.17-.56L12.89,.44c.19-.27,.5-.44,.83-.44h29.35c.33,0,.64,.16,.83,.44l12.72,18.59c.11,.17,.17,.36,.17,.56,0,4.33-3.52,7.85-7.85,7.85Zm-5.85-7.85c0,3.22,2.62,5.85,5.85,5.85s5.68-2.46,5.84-5.55L42.54,2H14.24L2.01,19.89c.16,3.09,2.72,5.55,5.84,5.55s5.85-2.62,5.85-5.85c0-.55,.45-1,1-1s1,.45,1,1c0,3.22,2.62,5.85,5.85,5.85s5.85-2.62,5.85-5.85c0-.55,.45-1,1-1s1,.45,1,1c0,3.22,2.62,5.85,5.85,5.85s5.85-2.62,5.85-5.85c0-.55,.45-1,1-1s1,.45,1,1Z"/><g><line class="d" x1="18.61" y1="5.68" x2="14.7" y2="16.44"/><path class="d" d="M14.7,17.44c-.11,0-.23-.02-.34-.06-.52-.19-.79-.76-.6-1.28l3.91-10.76c.19-.52,.76-.79,1.28-.6,.52,.19,.79,.76,.6,1.28l-3.91,10.76c-.15,.41-.53,.66-.94,.66Z"/></g><g><line class="d" x1="38.17" y1="5.68" x2="42.09" y2="16.44"/><path class="d" d="M42.09,17.44c-.41,0-.79-.25-.94-.66l-3.91-10.76c-.19-.52,.08-1.09,.6-1.28,.52-.19,1.09,.08,1.28,.6l3.91,10.76c.19,.52-.08,1.09-.6,1.28-.11,.04-.23,.06-.34,.06Z"/></g><path class="d" d="M27.9,17c-.55,0-1-.45-1-1V6c0-.55,.45-1,1-1s1,.45,1,1v10c0,.55-.45,1-1,1Z"/><path class="d" d="M47.9,47H8.96c-.55,0-1-.45-1-1V27.25h2v17.75H46.9V27h2v19c0,.55-.45,1-1,1Z"/></g></g></g></svg>