<?xml version="1.0" encoding="utf-8"?>
<!-- Generator: Adobe Illustrator 26.1.0, SVG Export Plug-In . SVG Version: 6.00 Build 0)  -->
<svg version="1.1" id="レイヤー_1" xmlns="http://www.w3.org/2000/svg" xmlns:xlink="http://www.w3.org/1999/xlink" x="0px"
	 y="0px" viewBox="0 0 56.8 47" style="enable-background:new 0 0 56.8 47;" xml:space="preserve">
<style type="text/css">
	.st0{fill:#F7931E;}
</style>
<g id="a">
</g>
<g id="b">
	<g id="c">
		<g>
			<path class="st0" d="M48.9,27.4c-2.9,0-5.5-1.6-6.8-4c-1.3,2.4-3.9,4-6.8,4s-5.5-1.6-6.9-4c-1.3,2.4-3.9,4-6.9,4s-5.5-1.6-6.9-4
				c-1.3,2.4-3.9,4-6.8,4c-4.3,0-7.8-3.5-7.8-7.9C0,19.4,0,19.2,0.2,19L12.9,0.4C13.1,0.2,13.4,0,13.7,0h29.3c0.3,0,0.6,0.2,0.8,0.4
				L56.6,19c0.1,0.2,0.2,0.4,0.2,0.6C56.8,23.9,53.3,27.4,48.9,27.4L48.9,27.4z M43.1,19.6c0,3.2,2.6,5.9,5.8,5.9s5.7-2.5,5.8-5.5
				L42.5,2H14.2L2,19.9c0.2,3.1,2.7,5.5,5.8,5.5s5.9-2.6,5.9-5.9c0-0.5,0.4-1,1-1s1,0.5,1,1c0,3.2,2.6,5.9,5.9,5.9s5.9-2.6,5.9-5.9
				c0-0.5,0.5-1,1-1s1,0.5,1,1c0,3.2,2.6,5.9,5.8,5.9s5.8-2.6,5.8-5.9c0-0.5,0.5-1,1-1S43.1,19,43.1,19.6L43.1,19.6z"/>
			<g>
				<line class="st0" x1="18.6" y1="5.7" x2="14.7" y2="16.4"/>
				<path class="st0" d="M14.7,17.4c-0.1,0-0.2,0-0.3-0.1c-0.5-0.2-0.8-0.8-0.6-1.3l3.9-10.8c0.2-0.5,0.8-0.8,1.3-0.6
					s0.8,0.8,0.6,1.3l-3.9,10.8C15.5,17.2,15.1,17.4,14.7,17.4z"/>
			</g>
			<g>
				<line class="st0" x1="38.2" y1="5.7" x2="42.1" y2="16.4"/>
				<path class="st0" d="M42.1,17.4c-0.4,0-0.8-0.2-0.9-0.7L37.2,6c-0.2-0.5,0.1-1.1,0.6-1.3c0.5-0.2,1.1,0.1,1.3,0.6L43,16.1
					c0.2,0.5-0.1,1.1-0.6,1.3C42.3,17.4,42.2,17.4,42.1,17.4z"/>
			</g>
			<path class="st0" d="M27.9,17c-0.5,0-1-0.5-1-1V6c0-0.6,0.5-1,1-1s1,0.4,1,1v10C28.9,16.5,28.4,17,27.9,17z"/>
			<path class="st0" d="M47.9,47H9c-0.6,0-1-0.5-1-1V27.2h2V45h36.9V27h2v19C48.9,46.5,48.5,47,47.9,47z"/>
		</g>
	</g>
</g>
</svg>
