<?xml version="1.0" encoding="utf-8"?>
<!-- Generator: Adobe Illustrator 26.1.0, SVG Export Plug-In . SVG Version: 6.00 Build 0)  -->
<svg version="1.1" id="レイヤー_1" xmlns="http://www.w3.org/2000/svg" xmlns:xlink="http://www.w3.org/1999/xlink" x="0px"
	 y="0px" viewBox="0 0 58 41.4" style="enable-background:new 0 0 58 41.4;" xml:space="preserve">
<style type="text/css">
	.st0{fill:#F7931E;}
</style>
<g id="a">
</g>
<g id="b">
	<g id="c">
		<g>
			<path class="st0" d="M35,15.2H22.7c-0.2,0-0.4-0.1-0.5-0.4s0-0.4,0.2-0.6l6.6-3.5c0.1-0.1,0.3-0.1,0.5,0l5.8,3.5
				c0.2,0.1,0.3,0.3,0.2,0.6C35.4,15,35.2,15.2,35,15.2L35,15.2z M24.6,14.2h8.6l-4-2.4C29.2,11.8,24.6,14.2,24.6,14.2z"/>
			<path class="st0" d="M52.8,41.4H5.2c-0.5,0-1-0.4-1-1V23.7l-2.1-0.1c-0.2,0-0.4-0.1-0.5-0.2L1,22.9c-0.4-0.3-0.5-0.8-0.3-1.2l0,0
				c-0.1-0.1-0.1-0.2-0.1-0.2l-0.4-1.1c-0.2-0.4,0-0.9,0.3-1.1s0.9-0.2,1.2,0l0.6,0.5c0.7,0,2-0.2,2.9-0.4c1-0.2,2.5-0.6,3.2-0.8
				c0.1-0.2,0.3-0.5,0.4-0.8c0.1-0.4,0.3-1.2,0.3-1.7l-0.2-0.7c-0.1-0.4,0-0.9,0.4-1.1c0.4-0.2,0.9-0.2,1.2,0.1l0.9,0.8h1.7v-0.3
				l-0.2-0.1c-0.3-0.1-0.5-0.3-0.6-0.6l-0.3-0.7c-0.1-0.3-0.1-0.6,0.1-0.9L11.8,12c-0.1-0.4,0.2-0.8,0.5-1c0.4-0.2,0.9-0.1,1.1,0.2
				l0.6,0.7c0.8,0,2.7-0.1,3.9-0.4c1.4-0.4,3.1-1.2,5-2.2l0.9-0.5c2.2-1.1,3.9-2.5,4-2.5c0.4-0.3,0.9-0.3,1.2,0c0,0,1.8,1.4,4,2.5
				L34,9.3c1.9,0.9,3.6,1.9,5,2.2c1.2,0.3,3.1,0.4,3.9,0.4l0.6-0.7c0.3-0.3,0.8-0.4,1.1-0.2s0.6,0.6,0.5,1l0,0.3c0,0,0,0,0.1,0.1
				c0.3,0.3,0.4,0.7,0.2,1.1l-0.3,0.7c-0.1,0.3-0.4,0.5-0.7,0.6l-0.3,0.1c0,0.1,0,0.2,0,0.3h2.5l0.9-0.8c0.3-0.3,0.8-0.3,1.2-0.1
				s0.5,0.7,0.4,1.1l-0.2,0.7c0.1,0.5,0.2,1.3,0.3,1.7c0.1,0.3,0.3,0.6,0.4,0.8c0.7,0.2,2.2,0.5,3.2,0.8c0.9,0.2,2.3,0.3,2.9,0.4
				l0.6-0.5c0.3-0.3,0.8-0.3,1.2,0c0.4,0.3,0.5,0.7,0.3,1.1l-0.4,1.1c0,0.1-0.1,0.2-0.1,0.2l0,0c0.2,0.4,0,0.9-0.3,1.2l-0.6,0.4
				c-0.2,0.1-0.3,0.2-0.5,0.2l-2.1,0.1v16.8C53.8,41,53.4,41.4,52.8,41.4L52.8,41.4z M6.1,39.5h45.8V22.7c0-0.5,0.4-1,0.9-1l2.4-0.1
				v0c-0.8-0.1-1.9-0.2-2.7-0.4c-1.3-0.3-3.6-0.9-3.6-0.9c-0.2,0-0.4-0.2-0.5-0.4c0-0.1-0.5-0.7-0.8-1.5c-0.2-0.4-0.3-0.9-0.4-1.4
				h-5.1c-0.4,0-0.8-0.3-0.9-0.6s0-0.8,0.3-1.1l0.7-0.6v-0.7c0-0.1,0-0.2,0-0.3c-1,0-2.6-0.1-3.7-0.4C37,13,35.1,12,33.1,11
				l-0.9-0.5c-1.6-0.8-2.9-1.7-3.7-2.3c-0.7,0.5-2.1,1.5-3.7,2.3L23.9,11c-2,1-3.8,1.9-5.4,2.4c-1.1,0.3-2.6,0.4-3.7,0.4
				c0,0.1,0,0.2,0,0.3v0.5l0.9,0.8c0.3,0.3,0.4,0.7,0.3,1.1c-0.1,0.4-0.5,0.6-0.9,0.6h-4.3c-0.1,0.5-0.2,1-0.4,1.4
				c-0.3,0.8-0.8,1.4-0.9,1.5c-0.1,0.2-0.3,0.3-0.5,0.4c0,0-2.3,0.6-3.6,0.9c-0.8,0.2-1.9,0.3-2.7,0.4v0l2.4,0.1
				c0.5,0,0.9,0.5,0.9,1L6.1,39.5L6.1,39.5z"/>
			<path class="st0" d="M36.8,11.8L36.8,11.8c-0.5,0-1-0.4-1-1l0-3.7c0-0.3,0.2-0.6,0.5-0.8c0-0.1-0.1-0.2,0-0.4l0.1-1
				C36,4.6,35.8,4.3,35.8,4c-0.1,0-0.2,0-0.2,0c-0.1,0-0.2,0-0.2,0H22.7c-0.1,0-0.2,0-0.2,0c-0.1,0-0.2,0-0.2,0
				c0,0.4-0.2,0.7-0.5,0.8l0.1,1c0,0.1,0,0.3,0,0.4C22,6.4,22.2,6.7,22.2,7l0,3.7c0,0.5-0.4,1-1,1h0c-0.5,0-1-0.4-1-1l0-2.8
				l-1.2-0.1c-0.3,0-0.5-0.2-0.7-0.4l-0.4-0.6c-0.2-0.3-0.3-0.8,0-1.1c0.1-0.2,0.3-0.3,0.5-0.4v0c-0.1-0.4,0.1-0.9,0.5-1.1
				c0.3-0.2,0.7-0.2,1,0l0-0.3c0-0.3,0.1-0.5,0.3-0.7c0.1-0.1,0.2-0.2,0.3-0.2V3c0-0.3,0.1-0.5,0.3-0.7c-0.2-0.2-0.3-0.4-0.3-0.7V1
				c0-0.3,0.1-0.6,0.4-0.8C20.9,0,21.2-0.1,21.5,0l0.6,0.1c0.1,0,0.2-0.1,0.4-0.1H23c0.5,0,1,0.4,1,1c0,0.4-0.2,0.7-0.4,1h11
				c-0.2-0.2-0.4-0.5-0.4-1c0-0.5,0.4-1,1-1h0.6c0.1,0,0.3,0,0.4,0.1L36.6,0c0.3-0.1,0.6,0,0.8,0.2c0.2,0.2,0.4,0.5,0.4,0.8v0.6
				c0,0.3-0.1,0.5-0.3,0.7c0.2,0.2,0.3,0.4,0.3,0.7v0.1c0.1,0,0.2,0.1,0.3,0.2c0.2,0.2,0.3,0.5,0.3,0.7l0,0.3c0.3-0.2,0.7-0.2,1,0
				c0.4,0.2,0.6,0.7,0.5,1.1v0c0.2,0.1,0.3,0.2,0.4,0.4c0.2,0.3,0.2,0.8,0,1.1l-0.4,0.6c-0.2,0.2-0.4,0.4-0.7,0.4L37.8,8l0,2.8
				C37.8,11.3,37.3,11.8,36.8,11.8L36.8,11.8z"/>
			<path class="st0" d="M28,27.8h-2.9c-0.3,0-0.5-0.2-0.5-0.5v-4.9c0-0.3,0.2-0.5,0.5-0.5H28c0.3,0,0.5,0.2,0.5,0.5v4.9
				C28.5,27.6,28.3,27.8,28,27.8z M25.6,26.8h2V23h-2V26.8z"/>
			<path class="st0" d="M32.9,27.8H30c-0.3,0-0.5-0.2-0.5-0.5v-4.9c0-0.3,0.2-0.5,0.5-0.5h2.9c0.3,0,0.5,0.2,0.5,0.5v4.9
				C33.4,27.6,33.2,27.8,32.9,27.8z M30.5,26.8h2V23h-2V26.8z"/>
			<path class="st0" d="M22.2,27.8H7.6c-0.3,0-0.5-0.2-0.5-0.5s0.2-0.5,0.5-0.5h14.1v-3.9H11.5c-0.3,0-0.5-0.2-0.5-0.5
				s0.2-0.5,0.5-0.5h10.7c0.3,0,0.5,0.2,0.5,0.5v4.9C22.7,27.6,22.5,27.8,22.2,27.8z"/>
			<path class="st0" d="M50.4,27.8H35.8c-0.3,0-0.5-0.2-0.5-0.5v-4.9c0-0.3,0.2-0.5,0.5-0.5h10.7c0.3,0,0.5,0.2,0.5,0.5
				s-0.2,0.5-0.5,0.5H36.3v3.9h14.1c0.3,0,0.5,0.2,0.5,0.5S50.7,27.8,50.4,27.8z"/>
			<path class="st0" d="M43.6,19.1H15.4c-0.3,0-0.5-0.2-0.5-0.5s0.2-0.5,0.5-0.5h28.2c0.3,0,0.5,0.2,0.5,0.5S43.9,19.1,43.6,19.1z"
				/>
		</g>
	</g>
</g>
</svg>
