<?xml version="1.0" encoding="UTF-8"?><svg xmlns="http://www.w3.org/2000/svg" viewBox="0 0 98 187"><defs><style>.e{fill:#838384;}</style></defs><g id="a"/><g id="b"><g id="c"><path id="d" class="e" d="M19.52,139.64c-2.14,1.36-3.98,2.21-6.53,2.36-.55,.03-.94-.75-.6-1.17,.65-.79,1.16-1.64,1.64-2.53-2.44,.04-4.66-.65-7.18-.85-.74-.06-1.01-1.11-.3-1.43,.81-.37,1.64-.71,2.47-1.05-2.25-.21-4.5-.49-6.77-.55-.88-.03-.95-1.33-.1-1.5,1.81-.37,3.52-.68,5.23-.85-2.62-.75-5.03-2.02-7.18-3.97-.49-.45-.03-1.35,.62-1.27,6.93,.89,13.8,2.16,20.63,3.62-1.03-8.41-4.67-17.99-.62-26.06,.44-.88,1.72-.04,1.29,.83-3.85,7.69-.04,17.27,.88,25.26,.02,.18-.03,.33-.1,.46,.32,.48-.13,1.33-.89,1.17-6.1-1.32-12.24-2.47-18.42-3.36,2.83,1.77,6.21,2.53,9.67,2.64,.44,.01,.88,.4,.88,.81v.76c0,.39-.58,.77-.98,.71-1.26-.18-2.56-.23-3.76-.19,1,.09,1.96,.16,2.97,.19,.75,.02,.97,1.12,.28,1.44-.96,.44-1.95,.84-2.93,1.24,1.8,.32,3.58,.66,5.49,.38,.7-.11,1.09,.57,.79,1.16-.42,.82-.84,1.63-1.32,2.4,1.5-.36,2.78-1.09,4.16-1.97,.83-.53,1.51,.83,.69,1.36Zm41.39-46.88c.43-.88-.77-1.74-1.2-.85-.3,.61-.71,1.08-1.18,1.48-.37-1-.73-2-1.17-2.97-.41-.9-1.69-.2-1.28,.7,.45,1.02,.83,2.07,1.22,3.12-.3,.18-.6,.34-.91,.51-.83,.45-.18,1.84,.65,1.39,.27-.15,.55-.3,.82-.46,.12,.3,.24,.6,.37,.9,.4,.9,1.69,.2,1.28-.7-.15-.33-.28-.67-.42-1.01,.73-.56,1.37-1.22,1.81-2.12Zm4.63-53.5c.45,.89,1.82,.19,1.37-.7-2.33-4.59-5.71-8.04-10.26-10.4-.01,0-.03,0-.04-.01-.26-.19-.6-.21-.89,.09-3.51,3.7-5.82,8.34-8.59,12.58-.54,.84,.75,1.68,1.29,.85,2.58-3.98,4.77-8.35,7.97-11.87,4.02,2.22,7.03,5.31,9.15,9.47Zm-12-14.95c-6.87,8.4-9.12,18.34-10.62,28.72-.04-.02-.08-.02-.11-.03-.04,.27-.08,.54-.15,.81,.02,.08,.02,.16-.02,.26-.03,.08-.06,.16-.08,.23-.06,.38-.13,.75-.15,1.13-.01,.21-.13,.34-.27,.41,.13,.63,.29,1.25,.54,1.83-2.81-.5-5.64-.9-8.49-.94-.01,0-.03,0-.04,0,0-.18-.05-.36-.21-.52-2.67-2.71-4.81-5.87-7.34-8.69,.23-.04,.45-.18,.56-.47,1.7-4.52,1.23-9.05-1.7-12.95-.16-.21-.35-.29-.55-.28-.01-.04-.03-.08-.04-.13-.29-.93-1.8-.64-1.51,.3,.49,1.58,1.16,2.81,1.22,4.24-1.27-2.54-2.79-4.87-4.52-7.18-.54-.72-1.59,.11-1.26,.85,.92,2.09,1.36,4.31,1.94,6.49-1.33-1.26-2.68-2.5-3.65-4.13-.42-.72-1.64-.38-1.45,.49,.51,2.2,.83,4.35,1.68,6.38-1.79-.33-3.62-.52-5.31-1.16-.75-.28-1.3,.68-.81,1.24,3.39,3.85,8.19,6.06,11.57,9.91,.23,.26,.53,.3,.78,.21,2.48,3.1,4.83,6.27,6.36,9.93,.1,.16,.2,.33,.3,.49,.27,.25,.53,.5,.77,.78,.13,.14,.25,.28,.37,.43,.21,.15,.42,.3,.65,.44,3.96,1.17,7.44,3.39,10.72,5.93,2.14,9.12,2.29,19.39-1.84,28-.15-.19-.39-.3-.7-.21-5.46,1.59-10.74,3.74-16.2,5.34-.95,.28-.65,1.77,.3,1.49,5.43-1.58,10.67-3.71,16.1-5.3,.01,.14,.07,.27,.15,.38,.57-.33,1.13-.65,1.7-.97,4.33-9.04,4.25-19.73,1.95-29.31-.04-.15-.11-.26-.19-.34-.04-.05-.09-.1-.14-.14-3.69-2.88-7.58-5.3-12.06-6.5,0-.02,0-.04-.01-.06-1.68-4.67-4.73-8.53-7.83-12.36-.26-.32-.61-.32-.89-.15-2.64-2.64-5.89-4.57-8.68-7.02,1.38,.25,2.78,.42,4.13,.79,.61,.17,1.28-.46,.93-1.07-.78-1.34-1.21-2.76-1.55-4.21,1.38,1.43,2.91,2.7,4.15,4.31,.55,.72,1.59-.11,1.26-.86-.7-1.57-1.11-3.23-1.52-4.88,.92,1.53,1.75,3.11,2.46,4.8,.28,.66,1.19,.46,1.42-.11,.35-.85,.5-1.59,.52-2.28,.77,2.53,.57,5.21-.43,7.89-.08-.09-.16-.17-.24-.26-.69-.7-1.84,.32-1.14,1.02,3.07,3.1,5.42,6.8,8.49,9.91,.18,.19,.4,.24,.6,.23-.03,.38,.19,.77,.7,.78,3.2,.05,6.39,.55,9.54,1.14,.22,.31,.46,.61,.74,.9,.54,.56,1.35,.05,1.34-.55,.03,0,.06-.02,.09-.03-.05-.26-.1-.52-.11-.78-.27-.29-.54-.57-.82-.85-.1-.02-.19-.04-.29-.06-.41-.67-.72-1.4-.91-2.16,.24-.1,.45-.29,.49-.62,1.48-10.92,3.49-21.33,10.68-30.12,.62-.76-.68-1.59-1.3-.83Zm43.36-8.25c-.83,.42-5.27,2.91-5.57,.76-.19-1.33,.19-2.68,.6-3.93,.84-2.5,1.93-4.9,2.98-7.32,.25-.58-.52-1.28-1.07-.92-3.4,2.23-5.68,5.29-8.03,8.49-2.32-3.77-2.58-8.34-3.86-12.53-.21-.68-1.24-.88-1.47-.09-1.34,4.63-.98,9.45-.84,14.22-1.48-1.38-3.19-2.46-4.74-3.84-.33-.29-.97-.38-1.21,.1l-.76,1.52c-.15,.3-.18,.66,.07,.92,3.14,3.21,5.91,6.67,8.28,10.49,.01,.02,.03,.03,.04,.05-.09,.14-.14,.31-.11,.52,.77,4.69,1.41,9.43,.02,14.07-.07,.24-.03,.44,.07,.61-2.74,3.77-4.84,8.13-6.46,12.52-1.93-5.42-3-11.33-5.72-16.42-2.75-5.13-6.93-8.7-11.95-11.56-.85-.48-1.69,.79-.83,1.28,5.51,3.15,10.04,7.21,12.44,13.19,1.92,4.78,3.08,9.83,4.86,14.67,.13,.35,.41,.46,.69,.42-.01,.76,1.19,1.08,1.48,.24,1.64-4.73,3.83-9.46,6.79-13.52,.21-.29,.17-.58,.01-.8,.02-.05,.06-.08,.07-.13,1.46-4.9,.84-9.9,.02-14.85-.01-.09-.05-.15-.08-.22,.15-.19,.19-.46,.02-.74-1.48-2.39-3.08-4.71-4.9-6.85-.21-.25-3.19-3.75-3.42-3.28,.08-.16,.17-.33,.25-.5,1.83,1.49,3.83,2.74,5.3,4.64,.4,.51,1.33,.18,1.33-.46-.04-4.21-.5-8.53,.08-12.72,.89,3.81,1.57,7.62,3.93,10.9,.31,.42,.94,.26,1.21-.1,1.81-2.45,3.51-4.94,5.71-6.98-1.35,2.82-2.78,6-2.38,8.81,.28,1.98,1.54,2.5,3.03,2.38-1.38,.84-2.83,1.58-4.3,2.31-.88,.44-.19,1.8,.69,1.36,3.08-1.54,6.03-3.1,8.57-5.44,.63-.58-.08-1.64-.86-1.24Zm-9,27.67c.36-1.31,.73-2.61,1.1-3.91-.32-5.08,.1-10.21-.97-15.23-.2-.96-1.7-.66-1.49,.3,1.08,5.05,.65,10.21,.98,15.33-.08,.07-.15,.16-.2,.28-2.21,5.18-4.4,10.38-4.6,16.09-1.24,3.3-1.99,6.6-2.21,10.06-.01,0-.02,0-.03,0-.48-.07-.9,.46-.8,.91,2.8,11.69-2.75,25.53-10.42,34.33-.25,.29-.24,.65-.1,.92-.11,.15-.17,.33-.14,.55,.84,6.1,1.28,12.32,.91,18.47-.36,5.88-1.03,12.86-5.24,17.38-.22,.24-.25,.53-.17,.78-3.02,5.16-6.3,10.16-10.48,14.46-.62,.64,.18,1.63,.85,1.25,5.39,6.56,7.64,15.16,15.1,19.63-1.66,.15-2.86-.59-4.54-1.24-.22-.08-.41-.06-.56,.02-.43-.64-.85-1.29-1.28-1.92-.54-.81-1.9-.13-1.36,.69,2.46,3.7,4.9,7.41,7.07,11.29-3.11-2.06-5.7-4.62-8.11-7.58-.65-.74-1.74,.26-1.13,1.02,1.57,1.81,2.43,4,3.3,6.2-2.53-2.38-4.25-5.4-5.86-8.58-.18-.36-.61-.46-.95-.35-2.01-6.12-2.37-12.77-5.13-18.69-.41-.89-1.77-.2-1.36,.69,3.28,7.03,3.17,15.06,6.47,22.06,.1,.27,.22,.54,.38,.79,.35,.58,1.08,.44,1.34,.01,1.69,2.78,3.69,5.28,6.53,7.14,.65,.42,1.41-.31,1.09-.98-.56-1.21-1.04-2.47-1.54-3.7,1.95,1.8,4.08,3.38,6.53,4.68,.64,.34,1.46-.26,1.09-.98-1.76-3.43-3.78-6.7-5.87-9.92,2.2,.83,3.79,1.27,6.3,.28,.69-.27,.43-1.16-.1-1.41-8.58-3.91-10.74-13.48-16.33-20.25,4.21-4.56,7.55-9.8,10.64-15.18,.05-.09,.07-.18,.09-.26,3.22-4.24,4.22-9.97,4.62-15.16,.53-6.98,.17-14.01-.79-20.95-.01-.09-.05-.16-.08-.23,7.46-8.66,12.96-21.73,11.16-33.38,.2-.1,.35-.29,.35-.59,0-4.08,.77-7.93,2.2-11.74,.01-.02,.02-.05,.03-.07,0-.02,.02-.05,.02-.07,.02-.04,0-.07,.02-.11,0-.03,.02-.05,.02-.08,0-.02,0-.04,0-.06,0-.03,0-.06,0-.08,.17-4.73,1.77-9.11,3.57-13.42,.02,.17,.06,.34,.08,.51Zm-36.43,111.77c2.13-6.57,4.22-13.3,9.32-18.03,.49,.41,1.41-.21,1.13-.99,0-.01,0-.03-.01-.04,.24-.38,.03-.84-.33-1.03-1.26-4.02-1.7-8.32-2.26-12.48-.49-3.62-2.63-6.92-5-9.66-.64-.74-1.75,.29-1.11,1.03,3.32,3.85,4.43,7.75,5.15,12.69,.45,3.04,.92,6.07,1.83,9-5.59,4.91-7.87,12.05-10.13,19.04-.3,.94,1.12,1.42,1.42,.48Zm-25.87-23.13c-1.44,2.7-3.13,5.15-5.36,7.31-.71,.68,.34,1.79,1.05,1.11,2.32-2.25,4.12-4.8,5.62-7.61,.45-.85-.86-1.67-1.32-.81Zm24.73-20.46c-7.61-1.36-15.27-.8-22.96-.75-.17,0-.31,.06-.42,.13-.52-.28-1.33,.06-1.14,.77,1.5,5.64,1.44,11.53-.74,16.98-.36,.91,1.09,1.38,1.45,.47,2.16-5.38,2.34-11.26,1.01-16.86,7.6-.05,15.18-.59,22.7,.76,.97,.18,1.05-1.33,.1-1.51Z"/></g></g></svg>