<?xml version="1.0" encoding="UTF-8"?><svg xmlns="http://www.w3.org/2000/svg" viewBox="0 0 257 52.14"><defs><style>.d{fill:#333;stroke:#504c52;stroke-miterlimit:10;}</style></defs><g id="a"/><g id="b"><g id="c"><g><path class="d" d="M43.8,29.02c-1.43-5.25-3.99-9.15-7.66-11.84,1.31-2.66,2.55-5.51,3.68-8.55l-6.84-3.12s-1.58,3.72-3.85,8.35c-.88-.25-1.78-.47-2.73-.64-9.16-1.69-20.91,2.6-24.49,12.11-3.57,9.5,.45,15.75,3.44,17.64,2.99,1.89,7.92,2.21,13.18-2.02,3.46-2.78,8.88-8.62,13.96-17.07,.57,.41,4.9,3.76,4.35,9.78-.58,6.44-2.6,10.87-2.6,10.87l7.21,2.99s4.81-9.44,2.34-18.48Zm-23.36,.45c-5.92,7.11-9.06,9.57-11.65,7.11-2.59-2.47-1.06-8.86,2.85-12.06,3.91-3.2,6.63-3.67,9.48-3.93,2.31-.22,4.05-.04,4.38,1.23-1.65,2.91-3.4,5.65-5.07,7.65Z"/><g><path class="d" d="M83.47,30.12s-4.1,4.88-12.36,8.59-13.28,1.17-13.15-6.83c.13-8,2.84-18.87,4.1-24.14l-7.6-1.24s-3.24,10.8-3.77,20.04c-.53,9.24-.4,16.72,5.68,19.98,6.08,3.25,13.41,2.21,19.16-1.04,5.75-3.25,11.96-7.87,11.96-7.87l-4.03-7.48Z"/><path class="d" d="M69,25.5c2.49,0,4.5-2.01,4.5-4.5s-2.01-4.5-4.5-4.5-4.5,2.01-4.5,4.5,2.01,4.5,4.5,4.5Zm.5-8c1.1,0,2,.9,2,2s-.9,2-2,2-2-.9-2-2,.9-2,2-2Z"/><path class="d" d="M79,20.5c2.49,0,4.5-2.01,4.5-4.5s-2.01-4.5-4.5-4.5-4.5,2.01-4.5,4.5,2.01,4.5,4.5,4.5Zm.5-7c1.1,0,2,.9,2,2s-.9,2-2,2-2-.9-2-2,.9-2,2-2Z"/></g><g><path class="d" d="M104.55,22.54s-1.27,2.35-3.21,4.37c-1.94,2.02-3.74,.33-3.21-4.9,.53-5.22,2.54-12.08,3.34-15.15l-7.42-1.37s-3.01,9.53-3.48,16.98c-.47,7.44,1.14,12.27,4.48,13.51,3.34,1.24,8.56,.78,13.44-7.9l-3.95-5.55Z"/><path class="d" d="M118.32,4.5l-7.31,1.91s3.37,10.03,3.05,20.79-7.56,20.73-7.56,20.73l7.31,3.56c3.24-5.02,7.56-13.53,7.69-25.74,.13-12.21-3.18-21.26-3.18-21.26Z"/></g><g><path class="d" d="M158.1,16.41l.4-7.09s-13.97-2.79-29,1.9l1.06,7.28s10.24-3.92,27.54-2.09Z"/><path class="d" d="M159.11,37.65s-19.9,5.19-28.65-6.15l-4.96,6.02s4.7,6.34,14.23,8.13c9.53,1.79,19.77,.19,19.77,.19l-.39-8.2Z"/></g><g><path class="d" d="M186.99,39.47c-4.76,2.99-10.46,.46-10.06-5.34,.4-5.79,2.58-10.35,5.69-14.51,3.11-4.17,5.1-7.09,2.12-10.48-2.98-3.38-12.97-1.04-21.24,2.54l2.25,6.77s6.35-2.47,8.4-2.99,2.38,0,.86,2.08c-1.52,2.08-5.36,8.66-6.02,15.23-.66,6.57,2.18,12.17,6.95,14.38,4.76,2.21,16.35,3.51,23.56-11.26l-5.96-5.66s-1.79,6.25-6.55,9.24Z"/><path class="d" d="M196.69,11.5l-3.19,1.22c4.65,9.22,8.12,20.78,8.12,20.78l6.88-3.41c-1.17-4.48-2.6-8.52-3.89-11.8-3.76-.47-6.85-3.18-7.92-6.79Z"/><path class="d" d="M206.5,.5c-4.42,0-8,3.58-8,8s3.58,8,8,8,8-3.58,8-8-3.58-8-8-8Zm1.5,10c-1.38,0-2.5-1.12-2.5-2.5s1.12-2.5,2.5-2.5,2.5,1.12,2.5,2.5-1.12,2.5-2.5,2.5Z"/></g><path class="d" d="M255.15,34.11c-1.21-3.17-2.96-5.61-5.3-7.44,1.15-1.91,2.26-3.95,3.33-6.18l-6.13-3.16h0c-.49-.25-.52-.39-.45-.9l.67-5.61c-4.22-.44-8.1-.61-11.6-.61h0c-.57,0-.66-.1-.57-.49,.78-2.93,1.47-4.23,1.47-4.23l-7.62-.99c-.5,1.9-.96,3.95-1.38,6.01-7.81,.62-12.28,1.95-12.28,1.95l.79,6.45s1.92-.67,9.12-1.52c1.09-.13,1.16,.02,1.04,.85-.21,1.48-.38,2.91-.51,4.22-.04,.39-.07,.79-.11,1.2-4.97,1.91-8.72,5.36-11.06,8.93-3.74,5.72-1.77,12.5,1.18,14.8,2.96,2.3,8.28,3.62,15.37-1.12,4.62-3.08,9.79-7.27,14.66-13.6,1.36,1.37,2.36,2.97,2.75,4.72,1.05,4.74-.53,10.33-.53,10.33l7.29,1.78s2.82-7.63-.13-15.39Zm-21.56-13.1c.11-1.35,.24-2.6,.39-3.75,.08-.57,.29-.68,.73-.71,5.85-.2,9.82,.37,11.36,.65,.55,.1,.49,.24,.28,.77-.46,1.15-1.31,3.17-2.58,5.54-2.24-.67-4.76-1.1-7.61-1.3-.91-.07-1.79-.07-2.65-.04,.03-.39,.06-.76,.09-1.16Zm-12.18,21.41c-2.82-.33-2.49-5.15,.85-8.69,.73-.77,1.57-1.49,2.49-2.14,.27-.16,.33-.07,.34,.17,0,.16,0,.33,0,.49h0c0,2.2,.06,3.99,.12,4.83,.13,1.94,1.38,1.74,3.47,1.81,.07,0,.14,0,.2,0,.73,.05,.82,.32,.22,.75-4.03,2.95-5.59,3.04-7.7,2.79Zm12.75-6.68c-.18,.16-.35,.29-.53,.45-.63,.51-1.06,.52-1.09-.72-.04-1.17-.06-2.9,0-5.26,.03-1.46,.45-1.62,1.35-1.68,.87-.03,1.75,0,2.61,.15,.92,.15,1.85,.4,2.76,.73,.25,.11,.37,.26-.01,.79-1.46,1.97-3.16,3.89-5.1,5.55Z"/></g></g></g></svg>