<?xml version="1.0" encoding="utf-8"?>
<!-- Generator: Adobe Illustrator 26.2.1, SVG Export Plug-In . SVG Version: 6.00 Build 0)  -->
<svg version="1.1" id="レイヤー_1" xmlns="http://www.w3.org/2000/svg" xmlns:xlink="http://www.w3.org/1999/xlink" x="0px"
	 y="0px" viewBox="0 0 445 90" style="enable-background:new 0 0 445 90;" xml:space="preserve">
<style type="text/css">
	.st0{fill:#F7B400;}
	.st1{fill:#00A68D;}
	.st2{fill:#3A81C4;}
	.st3{fill:#EC7986;}
	.st4{fill:#FFFFFF;}
</style>
<g id="a">
</g>
<g id="b">
	<g id="c">
		<g>
			<g>
				<path class="st0" d="M29.8,26.3c2.2,1.5,5.7,0.4,7.8-2.5c2.1-2.9,1.9-6.6-0.3-8.1s-5.7-0.4-7.8,2.5
					C27.4,21.1,27.5,24.8,29.8,26.3z"/>
				<path class="st1" d="M31.7,29.5c-5.6-1.2-7.7,0-8.8,1.3c-2,2.3-0.9,6.9,0.8,9.3c1.7,2.4,4.4,5.8,3.2,14.4
					c-1.2,8.6-7.3,17.2-10.9,21c-3.7,3.8-9.6,6.7-8.8,10.2c0.8,3.5,6.1,5.6,13.3,3.3c7.2-2.3,16.6-8.5,23-21s2.7-24.3,0.4-28.4
					C41.7,35.6,37.3,30.7,31.7,29.5L31.7,29.5z"/>
				<path class="st2" d="M68.4,42.1c-2-3.8-4.2-6.6-8.8-8.9s-11.5-1.5-12.5,2.9c-0.6,2.7,1,5.2,3.5,6.5s5.5,2.6,7.5,5.6
					s2.6,6.2,2.5,9.9c-0.1,3.7-1.5,7-1.8,9.3c-0.3,2.3,0.4,4.3,2.2,4.5s4.5-0.8,6.5-3.9c2-3.1,3.2-6.4,3.5-11.6S70.4,45.9,68.4,42.1
					z"/>
				<path class="st3" d="M18.9,39.7c-0.7-2.5-2.4-4.4-3.4-6.9s-2.2-8.8-0.8-12.5c1.4-3.7,3.9-7,6.7-9.4s4.8-2.4,6.6-4.1
					c1.9-1.7,2.4-3.4,1.9-4.6c-0.8-2.1-5.1-2.7-9.3-1.8c-4.2,0.9-9.9,3.2-14.3,8.4s-5.6,10-6.1,14.4c-0.5,4.4,0.6,9.2,2.4,12.8
					c1.9,3.6,4.6,7.7,9.8,8.9S19.6,42.1,18.9,39.7L18.9,39.7z"/>
			</g>
			<g>
				<path class="st4" d="M98.9,33c0,0,0.6,9.3-2,18.7C94.3,61.1,88,67.4,88,67.4V73c0,0,10.7-7.7,14.7-19.1s3.3-20.9,3.3-20.9
					L98.9,33L98.9,33z"/>
				<path class="st4" d="M127.2,50.8c-4.1-11.2-9.8-18.8-9.8-18.8H113c0,0,4.9,9.6,7.7,20.2s3.3,20.8,3.3,20.8h8.1
					C132,73,131.3,62,127.2,50.8z"/>
			</g>
			<polygon class="st4" points="133,48 156.5,48 158,54 134.7,54 			"/>
			<path class="st4" d="M190,55.8c0,0-3.1-2.3-8.2-5.5c2.9-7.1,3.3-13.7,3.3-18.3h-7.3c0,0,0.8,6.9-1.8,14.7
				c-5.3-3.2-11.7-6.8-18.3-10v5.1c0,0,6.8,3.9,15.2,9.2c0.3,0.2,0.7,0.5,1,0.7c-0.3,0.6-0.7,1.2-1,1.8c-6.2,10-11.6,12.1-18.9,14.7
				V72c0,0,12.9-0.6,21.6-11.2c1.5-1.8,2.7-3.6,3.8-5.4c5.9,4.1,10.6,7.9,10.6,7.9L190,55.8L190,55.8z"/>
			<g>
				<path class="st4" d="M196.5,41H193c0,0,3.4,5.4,4.4,13h5.6C203,54,201.3,46.8,196.5,41z"/>
				<path class="st4" d="M212,54c-1-6.7-6.2-13-6.2-13H202c3.5,5.8,4.7,13,4.7,13H212z"/>
				<path class="st4" d="M225,41h-6.2c0,0,1.4,9.6-4.4,18.5c-5.8,8.9-15.3,9.1-15.3,9.1V72c7-0.6,15.4-2.8,21.1-11.7
					C225.8,51.4,225,41,225,41L225,41z"/>
			</g>
			<path class="st4" d="M230,52.7V49c0,0,4.4-2.3,7.2-7.4C240,36.5,240,32,240,32h29c0,0,0.4,15.6-7.9,26.4
				c-8.3,10.8-18.1,13.2-26.8,13.6v-3.4c0,0,13.4-1.8,20.5-12.8s6.3-18.4,6.3-18.4h-15.6C245.6,37.4,241.8,49.2,230,52.7L230,52.7z"
				/>
			<path class="st4" d="M304.7,33.5c-6.4-2.4-18.1-2.6-25.8,5.4s-6.4,19.6-4.1,23.5s6,7.4,11.5,4.9s8.7-10.8,9.9-16.8
				c1.2-6,1.6-13.2,1.6-13.2l0,0c4.8,0.8,9.2,4.1,10.9,10.3c2.1,7.8-2.3,20.6-14.8,21.1L295,72c0,0,15.5-0.1,19.8-13.5
				S311.1,35.8,304.7,33.5L304.7,33.5z M283.2,62c-2.3,0.2-4.4-6.1-2.3-13.2c1.8-5.9,5.6-9.4,10.1-10.7c-0.1,0.9-0.5,7-1.9,14.1
				C287.6,59.7,285.5,61.8,283.2,62L283.2,62z"/>
			<g>
				<path class="st4" d="M331.4,51.5c0-16.6-0.1-20.5-0.1-20.5H324v22.1c0,11.2,9.7,18.9,27,18.9v-3.7
					C351,68.3,331.4,68.1,331.4,51.5z"/>
				<path class="st4" d="M348,42c-1.5-6.9-5-11-5-11h-4c2.9,5.9,3.5,11,3.5,11H348z"/>
				<path class="st4" d="M351.4,31H348c2,5.2,3,11,3,11h5C354.8,35.1,351.4,31,351.4,31z"/>
			</g>
			<g>
				<rect x="361" y="32" class="st4" width="7" height="24"/>
				<path class="st4" d="M384.5,31v19.9c0,17.6-20.5,17.4-20.5,17.4V72c15,0,28-5.7,28-21V31H384.5z"/>
			</g>
			<g>
				<path class="st4" d="M420,39h-5.3v-3.7h4.7v-1.8h-4.7V30h-2.5v3.5h-2c0.2-0.7,0.3-1.5,0.3-2.5h-1.9c0,0,0.2,3.5-1.6,5.6v1.5
					c0,0,1.6-0.8,2.6-2.9h2.6V39h-5.3v1.5h3.9c-0.2,1.4-1.3,6-4.8,8.4v1.7c0,0,4.2-2.3,6.2-6.7V51h2.5v-6.7c0.8,1.5,2.5,4.1,5.3,6
					v-1.9c0,0-2.8-2-4.3-7.9h4.3L420,39L420,39z"/>
				<path class="st4" d="M405.8,43.2v-2.3c-0.8-0.9-1.6-2.2-2.2-3.2v-2.3h2.4v-1.8h-2.4V30h-2.8v3.5h-3.5v1.8h3.5
					c0,0-0.4,5.9-3.8,8.9v2.3c0,0,2.5-1.8,3.8-4.2V51h2.8V40.9C404.6,42,405.8,43.2,405.8,43.2z"/>
			</g>
			<g>
				<path class="st4" d="M431.9,40.5h4.4V39h-11.6v1.5h4.5v8.4c-1.6,0.1-3.4,0.1-5.2,0V51c0,0,8.1,0.2,14-1.4v-1.8
					c0,0-2.4,0.6-6.1,0.9L431.9,40.5L431.9,40.5z"/>
				<path class="st4" d="M441.1,42.5c-1-2.3-1.4-5-1.5-7.7h4.7v-1.7h-4.8c0-1,0-2.1,0-3.1h-2.9c0,0,0,1.3,0,3.1H424v1.7h12.8
					c0.1,2.2,0.5,4.7,1.1,6.6c1.5,4.3,5.2,7.6,7.1,8.6v-2C445,48,442.7,46.2,441.1,42.5L441.1,42.5z"/>
				<path class="st4" d="M444,33c-0.1-1.5-0.7-3-0.7-3H441c0.6,1.5,0.8,3,0.8,3H444z"/>
			</g>
			<g>
				<path class="st4" d="M410,53h-3.8c0,0-2.9,4.4-9.2,6.3v1.5c0,0,1.5-0.2,3.5-1V61h14.9v-1.1c1.1,0.3,2.3,0.6,3.5,0.6v-1.5
					C419,59.1,413.8,57.9,410,53L410,53z M402,59c2-0.8,4.3-2.1,6.3-4c0,0,2.1,2.5,5.7,4H402z"/>
				<path class="st4" d="M413.3,67c0,0,0.8,1.1,1.4,2.8c-1.4,0.3-6.6,1.5-12.7,1.3c0,0,2.2-2,3.2-5.4h13V64H398v1.7h4.6
					c-0.3,1-1.4,4.1-3.8,5.6v1.4c0,0,9.4,0.7,16.4-1.4c0.2,0.6,0.3,1.2,0.4,1.8h3.5c0,0-1.4-3.3-3.9-6H413.3L413.3,67z"/>
			</g>
			<g>
				<polygon class="st4" points="439.5,70.9 439.5,59.6 444.3,59.6 444.3,57.5 439.5,57.5 439.5,53 436.5,53 436.5,57.5 432.2,57.5 
					432.2,59.6 436.5,59.6 436.5,70.9 431,70.9 431,73 445,73 445,70.9 				"/>
				<path class="st4" d="M433,67.5v-1.9c-1.3-0.8-2.5-2.2-3-3c1.2-1.7,2.1-3.8,2.4-6.4h-3V53h-3.1v3.2h-3.6v1.6h6.7
					c0,0-1,6.1-7.3,8.9v1.9c0,0,2-0.7,4.2-2.3V73h2.7v-8.4C431.1,66.4,433,67.5,433,67.5L433,67.5z"/>
			</g>
		</g>
	</g>
</g>
</svg>
